<svg width="40" height="40" viewBox="0 0 40 40" fill="none" xmlns="http://www.w3.org/2000/svg">
<path d="M28.0848 4.20962C26.637 4.28181 25.2008 4.8465 24.0092 6.03806L3.94243 26.1049C2.7293 27.318 2.28649 28.8195 2.44188 30.2182C2.59735 31.617 3.30539 32.9124 4.30071 33.9077C5.29586 34.903 6.59133 35.611 7.99 35.7665C9.38883 35.922 10.8902 35.479 12.1033 34.266L29.3035 17.066C30.944 15.4254 30.8228 13.291 29.6618 12.1299C28.5009 10.969 26.3663 10.8477 24.7257 12.4882L13.2591 23.9547L14.2535 24.9492L25.7203 13.4825C26.9464 12.2563 28.037 12.4935 28.6676 13.1241C29.2983 13.7548 29.5354 14.8453 28.3091 16.0715L11.1091 33.2715C10.1723 34.2084 9.16539 34.4823 8.14547 34.3689C7.12547 34.2556 6.09157 33.7095 5.29508 32.9132C4.49868 32.1167 3.95274 31.0827 3.83946 30.0628C3.72618 29.0428 3.99993 28.036 4.9368 27.0991L25.0036 7.03244C26.2816 5.75447 27.7515 5.42283 29.2941 5.68322C30.8366 5.94369 32.4289 6.85197 33.6843 8.10744C34.9398 9.36275 35.848 10.9551 36.1085 12.4977C36.3689 14.0403 36.0373 15.5102 34.7593 16.7883L17.5593 33.9883L18.5535 34.9826L35.7537 17.7824C37.3424 16.1938 37.817 14.1699 37.4951 12.2635C37.1734 10.3571 36.1109 8.54517 34.6787 7.11306C33.2466 5.68087 31.4347 4.61853 29.5283 4.29665C29.0517 4.21619 28.5677 4.18556 28.085 4.20962H28.0848Z" fill="#333333"/>
</svg>
