<svg width="635" height="127" viewBox="0 0 635 127" fill="none" xmlns="http://www.w3.org/2000/svg">
<g clip-path="url(#clip0_63_191)">
<path d="M127.314 0V127H0V84.6667H84.876V0H127.314Z" fill="#333333"/>
<path d="M212.19 0H169.752V127H212.19V0Z" fill="#333333"/>
<path d="M42.438 0H0V42.3333H42.438V0Z" fill="#30D5C8"/>
<path d="M286.541 127H274.956V92.1173H261.418V83.3967H300.037V92.1173H286.541V127Z" fill="#333333"/>
<path d="M369.211 127H329.744V83.3967H369.211V92.1173H342.56V100.542H363.525V109.262H342.56V118.279H369.211V127Z" fill="#333333"/>
<path d="M409.782 127H398.918L413.686 83.3967H424.848L439.616 127H428.752L426.248 119.211H412.286L409.782 127ZM414.832 111.125H423.744L419.288 96.4777L414.832 111.125Z" fill="#333333"/>
<path d="M498.647 102.701L496.313 110.49L493.936 118.279H486.51L481.459 102.701L479.083 126.958H469.492V83.3967H481.672L490.244 106.426L498.647 83.3967H510.997V126.958H501.406L498.647 102.701Z" fill="#333333"/>
<path d="M261.418 0H287.56C291.931 0 295.071 1.016 297.023 3.00567C299.018 4.953 299.994 8.128 299.994 12.4883V18.7113C299.994 23.0717 299.018 26.2467 297.023 28.2363C295.071 30.1837 291.931 31.1573 287.56 31.1573H272.622V43.6033H261.418V0ZM288.833 12.446C288.833 9.94833 287.602 8.72067 285.098 8.72067H272.622V22.4367H285.098C287.602 22.4367 288.833 21.209 288.833 18.7113V12.446Z" fill="#333333"/>
<path d="M329.744 0H356.056C360.427 0 363.61 1.016 365.562 3.00567C367.556 4.953 368.575 8.128 368.575 12.4883V18.0763C368.575 21.5053 367.981 24.2147 366.835 26.1197C365.689 28.0247 363.907 29.2947 361.403 29.9297L369.211 43.6033H356.989L349.775 30.5223H340.99V43.6033H329.744V0ZM357.286 12.446C357.286 9.94833 356.056 8.72067 353.552 8.72067H341.033V21.8017H353.552C356.056 21.8017 357.286 20.574 357.286 18.0763V12.446Z" fill="#333333"/>
<path d="M428.37 12.1073C428.37 9.69433 427.097 8.46667 424.593 8.46667H413.941C411.437 8.46667 410.164 9.69433 410.164 12.1073V31.496C410.164 33.909 411.437 35.1367 413.941 35.1367H424.593C427.097 35.1367 428.37 33.909 428.37 31.496V12.1073ZM439.658 31.496C439.658 35.7293 438.64 38.8197 436.645 40.767C434.693 42.672 431.51 43.6033 427.097 43.6033H411.437C407.066 43.6033 403.841 42.672 401.846 40.767C399.894 38.8197 398.918 35.7293 398.918 31.496V12.1073C398.918 7.874 399.894 4.78367 401.846 2.921C403.841 0.973667 407.066 0 411.437 0H427.097C431.468 0 434.651 0.973667 436.645 2.921C438.64 4.826 439.658 7.874 439.658 12.1073V31.496Z" fill="#333333"/>
<path d="M563.449 43.6033H540.957V34.8827H546.559V8.72067H540.957V0H563.449V8.72067H557.847V34.8827H563.449V43.6033Z" fill="#333333"/>
<path d="M510.997 43.6455H498.053L481.672 17.5005V43.6455H469.365V0.0421753H482.309L498.69 26.1872V0.0421753H510.954V43.6455H510.997Z" fill="#333333"/>
<path d="M634.999 43.6033H622.056L605.675 17.4837V43.6033H593.41V0H606.354L622.735 26.1197V0H634.999V43.6033Z" fill="#333333"/>
<rect x="469.365" y="83.3967" width="12.307" height="43.6033" fill="#333333"/>
<rect x="498.646" y="83.3967" width="12.307" height="43.6033" fill="#333333"/>
</g>
<defs>
<clipPath id="clip0_63_191">
<rect width="635" height="127" fill="white"/>
</clipPath>
</defs>
</svg>
