<svg width="0" height="0" class="hidden">
  <symbol fill="none" xmlns="http://www.w3.org/2000/svg" viewBox="0 0 18 14" id="email-icon">
    <path fill-rule="evenodd" clip-rule="evenodd" d="M0.87868 0.87868C0 1.75736 0 3.17157 0 6V8C0 10.8284 0 12.2426 0.87868 13.1213C1.75736 14 3.17157 14 6 14H12C14.8284 14 16.2426 14 17.1213 13.1213C18 12.2426 18 10.8284 18 8V6C18 3.17157 18 1.75736 17.1213 0.87868C16.2426 0 14.8284 0 12 0H6C3.17157 0 1.75736 0 0.87868 0.87868ZM3.5547 3.16795C3.09517 2.8616 2.4743 2.98577 2.16795 3.4453C1.8616 3.90483 1.98577 4.5257 2.4453 4.83205L7.8906 8.46225C8.5624 8.91012 9.4376 8.91012 10.1094 8.46225L15.5547 4.83205C16.0142 4.5257 16.1384 3.90483 15.8321 3.4453C15.5257 2.98577 14.9048 2.8616 14.4453 3.16795L9 6.79815L3.5547 3.16795Z"></path>
  </symbol>
  <symbol fill="none" xmlns="http://www.w3.org/2000/svg" viewBox="0 0 18 18" id="phone-icon">
    <path d="M2.67962 1.32038L3.29289 0.707107C3.68342 0.316583 4.31658 0.316582 4.70711 0.707106L7.29289 3.29289C7.68342 3.68342 7.68342 4.31658 7.29289 4.70711L5.50048 6.49952C5.2016 6.7984 5.1275 7.255 5.31653 7.63307C6.40929 9.81858 8.18142 11.5907 10.3669 12.6835C10.745 12.8725 11.2016 12.7984 11.5005 12.4995L13.2929 10.7071C13.6834 10.3166 14.3166 10.3166 14.7071 10.7071L17.2929 13.2929C17.6834 13.6834 17.6834 14.3166 17.2929 14.7071L16.6796 15.3204C14.5683 17.4317 11.2257 17.6693 8.83698 15.8777L7.62857 14.9714C5.88504 13.6638 4.33622 12.115 3.02857 10.3714L2.12226 9.16302C0.330722 6.7743 0.568269 3.43173 2.67962 1.32038Z"></path>
  </symbol>
  <symbol fill="none" xmlns="http://www.w3.org/2000/svg" viewBox="0 0 16 16" id="telegram-icon">
    <path fill-rule="evenodd" clip-rule="evenodd" d="M5.93929 8.64645L3.69205 7.89737L3.69205 7.89736L3.69204 7.89736C1.33883 7.11296 0.162231 6.72076 0.162231 6C0.162231 5.27924 1.33884 4.88704 3.69205 4.10263L12.2052 1.26491C13.861 0.71298 14.6889 0.437016 15.1259 0.874032C15.5629 1.31105 15.287 2.13894 14.735 3.79473L11.8973 12.3079L11.8973 12.3079L11.8973 12.3079C11.1129 14.6611 10.7207 15.8377 9.99995 15.8377C9.27919 15.8377 8.88699 14.6611 8.10259 12.3079L7.35351 10.0607L11.7071 5.70711C12.0976 5.31658 12.0976 4.68342 11.7071 4.29289C11.3165 3.90237 10.6834 3.90237 10.2928 4.29289L5.93929 8.64645Z"></path>
  </symbol>
</svg>