<svg width="16" height="16" viewBox="0 0 16 16" fill="none" xmlns="http://www.w3.org/2000/svg">
<path fill-rule="evenodd" clip-rule="evenodd" d="M5.93929 8.64645L3.69205 7.89737L3.69205 7.89736L3.69204 7.89736C1.33883 7.11296 0.162231 6.72076 0.162231 6C0.162231 5.27924 1.33884 4.88704 3.69205 4.10263L12.2052 1.26491C13.861 0.71298 14.6889 0.437016 15.1259 0.874032C15.5629 1.31105 15.287 2.13894 14.735 3.79473L11.8973 12.3079L11.8973 12.3079L11.8973 12.3079C11.1129 14.6611 10.7207 15.8377 9.99995 15.8377C9.27919 15.8377 8.88699 14.6611 8.10259 12.3079L7.35351 10.0607L11.7071 5.70711C12.0976 5.31658 12.0976 4.68342 11.7071 4.29289C11.3165 3.90237 10.6834 3.90237 10.2928 4.29289L5.93929 8.64645Z" fill="#7C7C7C"/>
</svg>
