<svg width="255" height="260" viewBox="0 0 255 260" fill="none" xmlns="http://www.w3.org/2000/svg">
<path d="M250 130C250 199.128 195.064 255 127.5 255C59.9362 255 5 199.128 5 130C5 60.8724 59.9362 5 127.5 5C195.064 5 250 60.8724 250 130Z" fill="white" stroke="#30D5C8" stroke-width="10"/>
<mask id="mask0_205_204" style="mask-type:alpha" maskUnits="userSpaceOnUse" x="0" y="0" width="255" height="260">
<path d="M255 130C255 201.797 197.916 260 127.5 260C57.0837 260 0 201.797 0 130C0 58.203 57.0837 0 127.5 0C197.916 0 255 58.203 255 130Z" fill="#D9D9D9"/>
</mask>
<g mask="url(#mask0_205_204)">
<path d="M176.182 103.421L183.661 103.977L183.661 103.976L176.182 103.421ZM81.769 103.421L74.2888 103.966L74.2889 103.967L81.769 103.421ZM25.1944 252.537L32.5749 253.871L32.575 253.87L25.1944 252.537ZM230.806 252.537L238.186 251.204L238.186 251.203L230.806 252.537ZM168.703 102.866C166.809 128.369 147.638 147.343 128.976 147.343V162.343C157.52 162.343 181.349 135.112 183.661 103.977L168.703 102.866ZM128.976 147.343C110.306 147.343 91.1078 128.366 89.2491 102.876L74.2889 103.967C76.5608 135.125 100.439 162.343 128.976 162.343V147.343ZM89.2492 102.876C87.4191 77.7504 104.912 59.5 128.976 59.5V44.5C96.1764 44.5 71.8274 70.172 74.2888 103.966L89.2492 102.876ZM128.976 59.5C152.991 59.5 170.53 78.2361 168.703 102.866L183.661 103.976C186.126 70.7575 161.822 44.5 128.976 44.5V59.5ZM127.997 170.798C79.2066 170.798 27.4592 197.804 17.8138 251.204L32.575 253.87C40.4604 210.214 83.4479 185.798 127.997 185.798V170.798ZM17.8139 251.204C16.9781 255.83 17.7969 260.748 20.5076 264.703C23.3333 268.825 27.9824 271.5 33.5843 271.5V256.5C33.2238 256.5 33.0888 256.425 33.0712 256.416C33.0434 256.401 32.9747 256.36 32.88 256.222C32.6644 255.907 32.3539 255.094 32.5749 253.871L17.8139 251.204ZM33.5843 271.5H222.41V256.5H33.5843V271.5ZM222.41 271.5C228.012 271.5 232.663 268.827 235.491 264.704C238.203 260.749 239.022 255.83 238.186 251.204L223.425 253.871C223.646 255.094 223.336 255.906 223.12 256.22C223.026 256.358 222.957 256.4 222.928 256.415C222.91 256.425 222.773 256.5 222.41 256.5V271.5ZM238.186 251.203C228.535 197.804 176.788 170.798 127.997 170.798V185.798C172.546 185.798 215.535 210.213 223.425 253.871L238.186 251.203Z" fill="#30D5C8"/>
</g>
</svg>
