<svg width="135" height="135" viewBox="0 0 135 135" fill="none" xmlns="http://www.w3.org/2000/svg">
<g clip-path="url(#clip0_140_218)">
<path fill-rule="evenodd" clip-rule="evenodd" d="M61.9944 63.3415C61.9318 53.1291 70.1549 44.7651 80.3829 44.7024C90.6109 44.6241 98.9593 52.8472 99.0219 63.0752C99.1159 75.4803 88.465 80.2732 81.3853 89.5928C81.1817 89.859 80.9937 90.0313 80.7118 90.0313C80.4299 90.0313 80.2262 89.859 80.0226 89.6084C72.8176 80.3985 62.0884 75.7466 61.9944 63.3415ZM68.6042 81.9649C68.9645 82.3251 69.0115 82.9046 68.6826 83.3119C65.3307 87.4782 60.1775 90.1723 54.3978 90.2193C44.1699 90.2976 35.8214 82.0588 35.7431 71.8308C35.6491 59.4413 46.3 54.6328 53.3797 45.3133C53.5834 45.0627 53.7713 44.8904 54.0689 44.8904C54.3509 44.8904 54.5388 45.047 54.7424 45.3133C56.763 47.8977 59.0654 50.1218 61.3366 52.252C61.6655 52.5653 61.7438 53.0508 61.5402 53.4581C60.0052 56.4184 59.1438 59.8016 59.1751 63.3728C59.2377 71.8778 63.686 77.1876 68.6042 81.9649ZM12.5461 43.8253L11.4654 46.3314L16.5715 48.5399L15.6317 50.7327L3.53985 45.5169L4.47963 43.3241L9.5858 45.5325L10.6979 42.9795L7.26766 36.8552L8.28576 34.5057L12.1232 41.5854L20.5186 39.3926L19.4065 41.9614L12.5461 43.8253ZM22.0379 36.354C20.931 36.8239 19.7981 36.9753 18.6391 36.8082C17.4695 36.6411 16.3784 36.1609 15.3655 35.3672C14.3525 34.5632 13.6269 33.6181 13.1883 32.5322C12.7497 31.4463 12.6244 30.3132 12.8124 29.1333C13.0108 27.9637 13.5121 26.8622 14.316 25.8284C15.12 24.8051 16.0651 24.0585 17.1511 23.5886C18.2475 23.1292 19.3752 22.9829 20.5343 23.15C21.7038 23.3171 22.7949 23.7974 23.8079 24.591C24.8208 25.3847 25.5465 26.3296 25.985 27.426C26.4236 28.512 26.5541 29.6397 26.3766 30.8093C26.1991 31.9892 25.7031 33.0909 24.8886 34.1142C24.0846 35.1479 23.1344 35.8946 22.0379 36.354ZM24.1994 30.684C24.3039 29.9113 24.1943 29.1595 23.8705 28.4285C23.5573 27.6975 23.0404 27.0501 22.3199 26.4863C21.5994 25.9224 20.8475 25.5726 20.0644 25.4368C19.2707 25.3115 18.5189 25.395 17.8089 25.6874C17.0989 25.9799 16.4827 26.4549 15.9607 27.1128C15.4386 27.7811 15.12 28.4963 15.0052 29.2586C14.8904 30.0209 14.9896 30.7728 15.3028 31.5141C15.6161 32.2554 16.133 32.9081 16.8535 33.472C17.574 34.0358 18.331 34.3804 19.1246 34.5057C19.9183 34.631 20.6752 34.5476 21.3958 34.2551C22.1163 33.9732 22.7323 33.4981 23.244 32.8298C23.766 32.1615 24.0846 31.4463 24.1994 30.684ZM35.7588 7.5496L43.1674 18.4354L41.3818 19.6415L35.9781 11.7003L36.4636 21.1765L35.6022 21.7717L27.0031 17.7619L32.4226 25.7344L30.6056 26.9718L23.2127 16.0703L25.2489 14.692L34.5214 19.1403L33.9105 8.80264L35.7588 7.5496ZM53.4894 7.1267C54.5545 7.56526 55.2906 8.4319 55.6979 9.72677C56.1364 11.0843 56.0163 12.2747 55.3376 13.2979C54.6693 14.3212 53.4894 15.094 51.7978 15.6161L46.347 17.339L42.3373 4.7929L44.6084 4.0724L45.9554 8.30143L49.4953 7.20501C51.0929 6.71429 52.4243 6.68813 53.4894 7.1267ZM53.1918 12.5931C53.5782 11.9979 53.6408 11.2826 53.3797 10.4473C53.1186 9.62229 52.6697 9.10541 52.0327 8.89662C51.3957 8.67734 50.5447 8.7295 49.4796 9.05325L46.488 9.96171L48.07 14.8799L51.0459 13.9558C52.0797 13.6425 52.795 13.1883 53.1918 12.5931ZM73.8827 0.861469C74.8956 1.43583 75.6891 2.22932 76.2635 3.24225C76.8482 4.26552 77.1406 5.42459 77.1406 6.71946C77.1406 8.00383 76.8482 9.15773 76.2635 10.181C75.6891 11.1939 74.8956 11.9927 73.8827 12.5774C72.8698 13.1621 71.7264 13.4494 70.4525 13.4389C69.2934 13.4494 68.244 13.2145 67.3042 12.7341C66.3539 12.2537 65.5761 11.575 64.9704 10.6979C64.3647 9.83124 63.9888 8.84446 63.8427 7.73756H61.18V13.2979H58.7992V0.125303H61.18V5.52906H63.874C64.0411 4.43265 64.4222 3.46671 65.0174 2.63139C65.6231 1.79608 66.3958 1.14857 67.3355 0.689174C68.2753 0.229776 69.3143 0 70.4525 0C71.7264 0 72.8698 0.287104 73.8827 0.861469ZM72.6453 10.7919C73.3032 10.4054 73.8201 9.86257 74.196 9.1629C74.5824 8.46323 74.7755 7.64875 74.7755 6.71946C74.7755 5.8005 74.5824 4.99135 74.196 4.29168C73.8201 3.59201 73.3032 3.04913 72.6453 2.66272C71.998 2.28681 71.267 2.09885 70.4525 2.09885C69.638 2.09885 68.9018 2.28681 68.244 2.66272C67.5757 3.04913 67.0588 3.59201 66.6934 4.29168C66.3174 5.00169 66.1295 5.811 66.1295 6.71946C66.1295 7.64875 66.3174 8.46323 66.6934 9.1629C67.0588 9.86257 67.5757 10.4054 68.244 10.7919C68.9018 11.1678 69.638 11.3557 70.4525 11.3557C71.267 11.3557 71.998 11.1678 72.6453 10.7919ZM83.5625 1.83258L85.818 2.60007L83.9854 7.89419L91.0808 10.3376L92.8977 5.05917L95.1532 5.84232L90.8458 18.2788L88.606 17.4956L90.4072 12.2955L83.3119 9.83641L81.5106 15.0522L79.2551 14.2691L83.5625 1.83258ZM101.998 9.38218L103.924 10.7919L98.2701 18.5294L110.44 15.5378L112.195 16.8221L104.441 27.4574L102.515 26.0477L108.154 18.3101L95.999 21.3018L94.2447 20.0174L101.998 9.38218ZM121.733 30.8876L118.695 27.1441L110.111 34.1455L108.592 32.2972L117.191 25.2959L114.137 21.568L115.75 20.2523L123.362 29.5719L121.733 30.8876ZM126.009 33.7852L126.996 35.9467L118.256 39.9252L130.332 43.2927L131.225 45.2663L119.259 50.717L118.256 48.5555L126.996 44.5771L114.92 41.2252L114.027 39.236L126.009 33.7852ZM123.582 75.261L118.444 75.2297L118.46 72.9899L121.514 73.0212L121.577 62.0101L118.522 61.9944L118.538 59.7233L123.676 59.7546V60.4594C123.718 61.3052 124.307 61.89 125.446 62.2137C126.594 62.527 128.207 62.7514 130.285 62.8872L134.734 63.1065L134.671 73.3188L123.597 73.2562L123.582 75.261ZM125.994 64.6258C124.908 64.4065 124.125 64.0255 123.644 63.4824L123.597 70.8597L132.604 70.9067L132.635 65.2054L130.097 65.0644C128.448 64.9809 127.079 64.8346 125.994 64.6258ZM121.091 79.2238C121.937 78.378 122.935 77.8141 124.083 77.5322C125.222 77.2503 126.412 77.2868 127.654 77.6418C128.896 77.9969 129.925 78.5973 130.74 79.4431C131.554 80.2889 132.091 81.2965 132.353 82.4661C132.615 83.6251 132.561 84.8312 132.196 86.0842C131.831 87.3478 131.23 88.3972 130.395 89.2325C129.56 90.0678 128.573 90.6265 127.435 90.9085C126.296 91.1904 125.106 91.1539 123.864 90.7988C122.621 90.4437 121.592 89.8382 120.778 88.9819C119.963 88.1361 119.42 87.1388 119.149 85.9902C118.878 84.8312 118.925 83.6251 119.29 82.3721C119.646 81.1085 120.245 80.0591 121.091 79.2238ZM121.216 85.2854C121.404 86.0372 121.785 86.6951 122.36 87.259C122.935 87.8228 123.655 88.2301 124.521 88.4807C125.399 88.7313 126.229 88.7731 127.012 88.606C127.795 88.4285 128.464 88.0734 129.017 87.5409C129.57 86.9979 129.961 86.3192 130.191 85.5047C130.422 84.7007 130.447 83.9227 130.27 83.1709C130.093 82.4191 129.717 81.7612 129.142 81.1974C128.578 80.623 127.858 80.2106 126.981 79.96C126.103 79.7094 125.273 79.6729 124.49 79.8503C123.707 80.0278 123.038 80.388 122.485 80.9311C121.921 81.4636 121.525 82.1371 121.295 82.9516C121.055 83.7556 121.029 84.5336 121.216 85.2854ZM127.67 98.0195L126.417 100.04L121.671 97.0797L117.692 103.439L122.423 106.399L121.17 108.42L110.002 101.434L111.27 99.4135L115.938 102.342L119.932 95.9833L115.249 93.0543L116.518 91.0338L127.67 98.0195ZM106.619 105.992C107.788 105.731 108.931 105.783 110.049 106.149C111.166 106.514 112.153 107.177 113.009 108.138C113.876 109.098 114.43 110.153 114.669 111.302C114.909 112.461 114.831 113.599 114.434 114.716C114.038 115.833 113.354 116.831 112.383 117.708C111.411 118.585 110.346 119.154 109.187 119.415C108.039 119.686 106.906 119.635 105.788 119.259C104.671 118.894 103.679 118.23 102.812 117.269C101.956 116.309 101.408 115.254 101.168 114.105C100.928 112.957 100.995 111.819 101.371 110.691C101.758 109.574 102.436 108.576 103.408 107.699C104.389 106.822 105.459 106.253 106.619 105.992ZM103.502 111.208C103.261 111.949 103.235 112.706 103.423 113.479C103.611 114.262 104.008 114.994 104.614 115.672C105.219 116.35 105.898 116.82 106.65 117.081C107.412 117.352 108.169 117.41 108.921 117.254C109.673 117.086 110.362 116.721 110.989 116.157C111.615 115.593 112.054 114.947 112.304 114.215C112.544 113.484 112.576 112.727 112.398 111.944C112.221 111.161 111.829 110.43 111.223 109.751C110.607 109.072 109.923 108.597 109.172 108.326C108.409 108.065 107.647 108.013 106.885 108.169C106.133 108.326 105.439 108.686 104.802 109.25C104.175 109.814 103.742 110.466 103.502 111.208ZM92.5531 129.267C91.394 129.194 90.3394 128.829 89.3891 128.171C88.4389 127.502 87.6767 126.573 87.1023 125.383C86.528 124.192 86.2774 123.013 86.3505 121.843C86.4237 120.684 86.7891 119.63 87.4469 118.679C88.1153 117.728 89.0237 116.977 90.1723 116.424C91.0286 116.016 91.8901 115.808 92.7567 115.797C93.6233 115.786 94.4535 115.974 95.2471 116.361L92.2868 110.221L94.4326 109.187L102.249 125.399L100.181 126.385L99.2725 124.506C99.1159 125.394 98.7505 126.182 98.1761 126.871C97.6123 127.56 96.8866 128.119 95.999 128.547C94.8504 129.09 93.7017 129.33 92.5531 129.267ZM89.4675 119.744C89.0289 120.382 88.7888 121.102 88.747 121.906C88.6948 122.709 88.8671 123.519 89.2638 124.333C89.6606 125.159 90.188 125.806 90.8458 126.276C91.5037 126.735 92.2137 126.991 92.976 127.043C93.7486 127.095 94.5161 126.938 95.2785 126.573C96.0198 126.218 96.6098 125.716 97.0484 125.07C97.487 124.432 97.7324 123.718 97.7846 122.924C97.8264 122.12 97.6488 121.31 97.252 120.496C96.8656 119.671 96.3435 119.024 95.6857 118.554C95.0383 118.084 94.3282 117.822 93.5555 117.771C92.7724 117.719 92.0049 117.869 91.253 118.225C90.4907 118.59 89.8955 119.097 89.4675 119.744ZM79.8503 121.029C80.9676 121.436 81.9022 122.094 82.654 123.002C83.3954 123.9 83.8757 124.987 84.095 126.26C84.3038 127.533 84.2047 128.724 83.7974 129.831C83.3797 130.928 82.7062 131.847 81.7769 132.588C80.8371 133.319 79.725 133.794 78.4407 134.013C77.1458 134.232 75.9397 134.143 74.8225 133.747C73.7156 133.351 72.7863 132.698 72.0345 131.789C71.2826 130.892 70.8023 129.805 70.5935 128.531C70.3847 127.247 70.4838 126.056 70.8911 124.96C71.2983 123.853 71.9666 122.928 72.8959 122.188C73.8252 121.447 74.9321 120.971 76.2165 120.762C77.5114 120.543 78.7226 120.632 79.8503 121.029ZM74.4152 123.77C73.8201 124.26 73.392 124.886 73.1309 125.649C72.8698 126.401 72.8176 127.226 72.9742 128.124C73.1204 129.021 73.439 129.789 73.9297 130.426C74.4204 131.053 75.0313 131.502 75.7623 131.773C76.4828 132.035 77.2608 132.098 78.0961 131.961C78.9314 131.816 79.6467 131.502 80.2419 131.022C80.8371 130.531 81.2705 129.905 81.5419 129.142C81.8134 128.39 81.8709 127.565 81.7142 126.667C81.5681 125.77 81.2443 125.002 80.7431 124.365C80.2419 123.738 79.6259 123.289 78.8949 123.018C78.1744 122.747 77.3964 122.678 76.5611 122.814C75.7258 122.95 75.0104 123.268 74.4152 123.77ZM55.3533 124.333C55.4681 123.185 55.9903 122.34 56.9196 121.796C57.8489 121.263 59.1699 121.087 60.8824 121.263L67.1789 121.906L65.8475 135L59.7703 134.373C58.2248 134.217 57.0449 133.805 56.2304 133.136C55.4159 132.458 55.0609 131.585 55.1653 130.52C55.2385 129.82 55.4838 129.241 55.9015 128.782C56.3296 128.312 56.8883 127.978 57.5774 127.779C55.9172 127.184 55.1758 126.036 55.3533 124.333ZM64.0933 129.126L60.5378 128.766C59.6293 128.672 58.9245 128.766 58.4233 129.048C57.922 129.33 57.6401 129.784 57.5774 130.411C57.4521 131.664 58.3084 132.384 60.1462 132.572L63.7174 132.932L64.0933 129.126ZM58.5799 123.347C58.0578 123.608 57.7602 124.067 57.6871 124.725C57.6244 125.403 57.8019 125.931 58.2196 126.307C58.6374 126.683 59.3317 126.918 60.3028 127.012L64.2656 127.419L64.6572 123.488L60.851 123.112C59.8694 123.007 59.1124 123.085 58.5799 123.347ZM39.5179 120.308L41.93 121.577L44.5301 116.659L46.6446 117.771L40.5047 129.424L38.3902 128.312L40.9903 123.394L38.5312 122.094L32.1563 125.023L29.8851 123.832L37.2624 120.559L35.7118 112.022L38.2022 113.322L39.5179 120.308ZM18.3728 112.821C18.0282 111.714 17.9969 110.602 18.2788 109.485C18.5607 108.357 19.1559 107.313 20.0644 106.352C20.9833 105.392 22.0014 104.739 23.1187 104.394C24.2359 104.05 25.3533 104.024 26.4706 104.316C27.5878 104.598 28.6113 105.178 29.5405 106.055C30.2192 106.712 30.7204 107.443 31.0442 108.247C31.3575 109.051 31.4723 109.897 31.3888 110.785L36.0877 105.851L37.8107 107.496L25.4055 120.527L23.7609 118.945L25.1862 117.426C24.3091 117.594 23.4476 117.531 22.6018 117.238C21.756 116.956 20.978 116.475 20.268 115.797C19.3491 114.92 18.7174 113.928 18.3728 112.821ZM26.1887 106.572C25.4368 106.384 24.6745 106.415 23.9018 106.666C23.1395 106.906 22.4452 107.355 21.8187 108.013C21.1921 108.67 20.7744 109.391 20.5656 110.174C20.3672 110.947 20.3777 111.704 20.5969 112.445C20.8162 113.187 21.234 113.844 21.85 114.419C22.4452 114.994 23.1239 115.369 23.8862 115.546C24.638 115.734 25.395 115.708 26.1573 115.468C26.9197 115.228 27.614 114.779 28.2405 114.121C28.867 113.463 29.2848 112.748 29.4936 111.975C29.7023 111.203 29.6972 110.44 29.4779 109.688C29.2481 108.937 28.8357 108.279 28.2405 107.715C27.6245 107.13 26.9405 106.749 26.1887 106.572ZM21.5211 97.8785C21.5316 99.0794 21.2391 100.186 20.6439 101.199C20.0592 102.212 19.2029 103.042 18.0752 103.69C16.9579 104.327 15.8092 104.645 14.6293 104.645C13.4597 104.645 12.3687 104.332 11.3557 103.705C10.3325 103.089 9.49699 102.212 8.84964 101.074C8.20228 99.9356 7.86803 98.7765 7.84719 97.5966C7.82636 96.4167 8.11347 95.3203 8.70866 94.3073C9.30386 93.2841 10.1602 92.4539 11.2774 91.8169C12.3947 91.1695 13.5434 90.851 14.7233 90.8615C15.9032 90.8615 16.9996 91.1642 18.0125 91.7699C19.0255 92.386 19.8608 93.2579 20.5186 94.3857C21.166 95.5239 21.5002 96.6881 21.5211 97.8785ZM17.0727 93.7435C16.3941 93.3571 15.6579 93.1744 14.8643 93.1953C14.0603 93.2161 13.2614 93.451 12.4678 93.9001C11.6846 94.3595 11.079 94.9287 10.6509 95.6074C10.2332 96.2861 10.0244 97.0119 10.0244 97.7846C10.0349 98.5572 10.2488 99.309 10.6665 100.04C11.0843 100.771 11.6272 101.335 12.2955 101.732C12.9534 102.118 13.6844 102.306 14.4883 102.296C15.2923 102.285 16.0911 102.05 16.8848 101.591C17.6784 101.142 18.284 100.573 18.7017 99.8834C19.1194 99.1942 19.3282 98.4632 19.3282 97.6906C19.3282 96.9179 19.1194 96.1661 18.7017 95.4351C18.284 94.7041 17.7411 94.1402 17.0727 93.7435ZM9.83641 75.9032C10.9537 75.6108 11.9248 75.8041 12.7497 76.4828C13.5851 77.1719 14.2169 78.3467 14.645 80.007L16.2269 86.1469L3.49286 89.4518L1.95788 83.5312C1.56114 82.0275 1.54015 80.7745 1.89523 79.772C2.23982 78.7801 2.93416 78.1482 3.97842 77.8768C4.64676 77.6993 5.27328 77.7306 5.85799 77.9708C6.44269 78.2005 6.94391 78.6024 7.36164 79.1768C7.35115 77.4225 8.17612 76.3313 9.83641 75.9032ZM8.37974 85.771L7.48695 82.3094C7.25717 81.4218 6.92308 80.7901 6.48451 80.4142C6.04594 80.0488 5.52389 79.9443 4.9182 80.1009C3.69648 80.4142 3.32057 81.4688 3.79046 83.2649L4.68326 86.7264L8.37974 85.771ZM11.8883 78.5973C11.4602 78.2005 10.9223 78.0856 10.275 78.2527C9.61712 78.4198 9.18373 78.7644 8.97494 79.2865C8.77649 79.8085 8.79747 80.5447 9.03759 81.495L10.04 85.3481L13.8618 84.3456L12.9064 80.6491C12.6558 79.6885 12.3163 79.0045 11.8883 78.5973ZM0 73.7574V71.3766H9.5858L0 63.3101V61.1486H13.1726V63.5294H3.57118L13.157 71.5802V73.7731L0 73.7574Z" fill="#FF2A23"/>
</g>
<defs>
<clipPath id="clip0_140_218">
<rect width="135" height="135" fill="white"/>
</clipPath>
</defs>
</svg>
