<svg width="634" height="135" viewBox="0 0 634 135" fill="none" xmlns="http://www.w3.org/2000/svg">
<path d="M619.472 110.813H622.213V121.762L631.493 110.813H633.977V125.846H631.236V114.897L621.985 125.846H619.472V110.813ZM611.462 123.209C612.033 122.85 612.319 122.292 612.319 121.535C612.319 120.76 612.057 120.183 611.533 119.804C611.01 119.426 610.187 119.237 609.064 119.237H604.495V123.747H608.893C610.035 123.747 610.891 123.568 611.462 123.209ZM604.495 117.28H608.607C609.654 117.28 610.449 117.092 610.991 116.713C611.533 116.334 611.805 115.786 611.805 115.067C611.805 113.63 610.739 112.911 608.607 112.911H604.495V117.28ZM615.06 121.705C615.06 123.029 614.561 124.05 613.561 124.769C612.562 125.487 611.072 125.846 609.093 125.846H601.811V110.813H608.836C610.625 110.813 612.024 111.149 613.033 111.819C614.042 112.491 614.546 113.441 614.546 114.671C614.546 115.465 614.333 116.15 613.905 116.727C613.476 117.304 612.88 117.744 612.12 118.046C614.079 118.537 615.06 119.757 615.06 121.705ZM592.378 122.967C593.148 122.523 593.752 121.899 594.19 121.094C594.628 120.291 594.848 119.369 594.848 118.33C594.848 117.289 594.628 116.367 594.19 115.564C593.752 114.761 593.148 114.142 592.378 113.705C591.606 113.271 590.735 113.053 589.765 113.053C588.794 113.053 587.923 113.271 587.153 113.705C586.382 114.142 585.772 114.761 585.324 115.564C584.877 116.367 584.654 117.289 584.654 118.33C584.654 119.369 584.877 120.291 585.324 121.094C585.772 121.899 586.382 122.523 587.153 122.967C587.923 123.411 588.794 123.633 589.765 123.633C590.735 123.633 591.606 123.411 592.378 122.967ZM585.71 125.024C584.511 124.362 583.573 123.449 582.897 122.287C582.222 121.123 581.884 119.804 581.884 118.33C581.884 116.854 582.222 115.536 582.897 114.372C583.573 113.209 584.511 112.302 585.71 111.649C586.909 110.997 588.261 110.671 589.765 110.671C591.269 110.671 592.616 110.997 593.806 111.649C594.995 112.302 595.927 113.209 596.603 114.372C597.279 115.536 597.617 116.854 597.617 118.33C597.617 119.804 597.279 121.123 596.603 122.287C595.927 123.449 594.995 124.362 593.806 125.024C592.616 125.686 591.269 126.017 589.765 126.017C588.261 126.017 586.909 125.686 585.71 125.024ZM573.592 122.967C574.363 122.523 574.973 121.899 575.42 121.094C575.867 120.291 576.09 119.369 576.09 118.33C576.09 117.289 575.867 116.367 575.42 115.564C574.973 114.761 574.363 114.142 573.592 113.705C572.821 113.271 571.95 113.053 570.979 113.053C570.028 113.053 569.166 113.276 568.395 113.72C567.624 114.165 567.014 114.784 566.568 115.578C566.12 116.371 565.897 117.289 565.897 118.33C565.897 119.369 566.115 120.291 566.554 121.094C566.991 121.899 567.6 122.523 568.381 122.967C569.161 123.411 570.028 123.633 570.979 123.633C571.95 123.633 572.821 123.411 573.592 122.967ZM575.148 111.635C576.309 112.278 577.218 113.176 577.875 114.329C578.532 115.483 578.86 116.816 578.86 118.33C578.86 119.842 578.532 121.18 577.875 122.343C577.218 123.506 576.309 124.409 575.148 125.052C573.987 125.694 572.673 126.017 571.208 126.017C570.122 126.017 569.128 125.809 568.223 125.392C567.319 124.977 566.554 124.371 565.925 123.577V131.349H563.184V110.813H565.811V113.195C566.42 112.364 567.191 111.735 568.123 111.309C569.057 110.884 570.084 110.671 571.208 110.671C572.673 110.671 573.987 110.993 575.148 111.635ZM551.687 119.493H548.545V125.846H545.804V110.813H548.545V117.167H551.743L556.655 110.813H559.596L553.856 118.046L559.995 125.846H556.769L551.687 119.493ZM529.1 123.209C529.671 122.85 529.957 122.292 529.957 121.535C529.957 120.76 529.695 120.183 529.172 119.804C528.648 119.426 527.825 119.237 526.702 119.237H522.133V123.747H526.53C527.672 123.747 528.529 123.568 529.1 123.209ZM522.133 117.28H526.245C527.292 117.28 528.087 117.092 528.629 116.713C529.172 116.334 529.443 115.786 529.443 115.067C529.443 113.63 528.377 112.911 526.245 112.911H522.133V117.28ZM532.698 121.705C532.698 123.029 532.198 124.05 531.199 124.769C530.2 125.487 528.71 125.846 526.73 125.846H519.449V110.813H526.473C528.262 110.813 529.662 111.149 530.67 111.819C531.679 112.491 532.185 113.441 532.185 114.671C532.185 115.465 531.97 116.15 531.542 116.727C531.113 117.304 530.518 117.744 529.757 118.046C531.717 118.537 532.698 119.757 532.698 121.705ZM510.015 122.967C510.786 122.523 511.39 121.899 511.828 121.094C512.266 120.291 512.485 119.369 512.485 118.33C512.485 117.289 512.266 116.367 511.828 115.564C511.39 114.761 510.786 114.142 510.015 113.705C509.244 113.271 508.374 113.053 507.403 113.053C506.431 113.053 505.56 113.271 504.79 113.705C504.019 114.142 503.409 114.761 502.962 115.564C502.514 116.367 502.291 117.289 502.291 118.33C502.291 119.369 502.514 120.291 502.962 121.094C503.409 121.899 504.019 122.523 504.79 122.967C505.56 123.411 506.431 123.633 507.403 123.633C508.374 123.633 509.244 123.411 510.015 122.967ZM503.348 125.024C502.149 124.362 501.211 123.449 500.535 122.287C499.859 121.123 499.522 119.804 499.522 118.33C499.522 116.854 499.859 115.536 500.535 114.372C501.211 113.209 502.149 112.302 503.348 111.649C504.548 110.997 505.898 110.671 507.403 110.671C508.906 110.671 510.253 110.997 511.443 111.649C512.632 112.302 513.565 113.209 514.242 114.372C514.917 115.536 515.254 116.854 515.254 118.33C515.254 119.804 514.917 121.123 514.242 122.287C513.565 123.449 512.632 124.362 511.443 125.024C510.253 125.686 508.906 126.017 507.403 126.017C505.898 126.017 504.548 125.686 503.348 125.024ZM491.23 122.967C492.001 122.523 492.611 121.899 493.059 121.094C493.505 120.291 493.729 119.369 493.729 118.33C493.729 117.289 493.505 116.367 493.059 115.564C492.611 114.761 492.001 114.142 491.23 113.705C490.46 113.271 489.588 113.053 488.618 113.053C487.666 113.053 486.805 113.276 486.034 113.72C485.263 114.165 484.653 114.784 484.206 115.578C483.759 116.371 483.535 117.289 483.535 118.33C483.535 119.369 483.753 120.291 484.193 121.094C484.63 121.899 485.239 122.523 486.02 122.967C486.8 123.411 487.666 123.633 488.618 123.633C489.588 123.633 490.46 123.411 491.23 122.967ZM492.787 111.635C493.947 112.278 494.857 113.176 495.514 114.329C496.171 115.483 496.499 116.816 496.499 118.33C496.499 119.842 496.171 121.18 495.514 122.343C494.857 123.506 493.947 124.409 492.787 125.052C491.626 125.694 490.312 126.017 488.846 126.017C487.761 126.017 486.767 125.809 485.863 125.392C484.958 124.977 484.193 124.371 483.564 123.577V131.349H480.822V110.813H483.45V113.195C484.058 112.364 484.83 111.735 485.762 111.309C486.695 110.884 487.723 110.671 488.846 110.671C490.312 110.671 491.626 110.993 492.787 111.635ZM471.44 122.967C472.211 122.523 472.815 121.899 473.253 121.094C473.691 120.291 473.91 119.369 473.91 118.33C473.91 117.289 473.691 116.367 473.253 115.564C472.815 114.761 472.211 114.142 471.44 113.705C470.669 113.271 469.798 113.053 468.828 113.053C467.856 113.053 466.986 113.271 466.216 113.705C465.444 114.142 464.835 114.761 464.387 115.564C463.94 116.367 463.717 117.289 463.717 118.33C463.717 119.369 463.94 120.291 464.387 121.094C464.835 121.899 465.444 122.523 466.216 122.967C466.986 123.411 467.856 123.633 468.828 123.633C469.798 123.633 470.669 123.411 471.44 122.967ZM464.772 125.024C463.574 124.362 462.635 123.449 461.96 122.287C461.284 121.123 460.946 119.804 460.946 118.33C460.946 116.854 461.284 115.536 461.96 114.372C462.635 113.209 463.574 112.302 464.772 111.649C465.972 110.997 467.324 110.671 468.828 110.671C470.332 110.671 471.679 110.997 472.869 111.649C474.058 112.302 474.989 113.209 475.666 114.372C476.342 115.536 476.68 116.854 476.68 118.33C476.68 119.804 476.342 121.123 475.666 122.287C474.989 123.449 474.058 124.362 472.869 125.024C471.679 125.686 470.332 126.017 468.828 126.017C467.324 126.017 465.972 125.686 464.772 125.024ZM442.658 110.813H445.399V117.195H454.022V110.813H456.763V125.846H454.022V119.549H445.399V125.846H442.658V110.813ZM433.224 122.967C433.995 122.523 434.599 121.899 435.037 121.094C435.474 120.291 435.694 119.369 435.694 118.33C435.694 117.289 435.474 116.367 435.037 115.564C434.599 114.761 433.995 114.142 433.224 113.705C432.453 113.271 431.582 113.053 430.611 113.053C429.64 113.053 428.77 113.271 427.999 113.705C427.227 114.142 426.619 114.761 426.171 115.564C425.723 116.367 425.501 117.289 425.501 118.33C425.501 119.369 425.723 120.291 426.171 121.094C426.619 121.899 427.227 122.523 427.999 122.967C428.77 123.411 429.64 123.633 430.611 123.633C431.582 123.633 432.453 123.411 433.224 122.967ZM426.556 125.024C425.358 124.362 424.419 123.449 423.744 122.287C423.068 121.123 422.73 119.804 422.73 118.33C422.73 116.854 423.068 115.536 423.744 114.372C424.419 113.209 425.358 112.302 426.556 111.649C427.756 110.997 429.107 110.671 430.611 110.671C432.115 110.671 433.461 110.997 434.652 111.649C435.841 112.302 436.773 113.209 437.45 114.372C438.126 115.536 438.463 116.854 438.463 118.33C438.463 119.804 438.126 121.123 437.45 122.287C436.773 123.449 435.841 124.362 434.652 125.024C433.461 125.686 432.115 126.017 430.611 126.017C429.107 126.017 427.756 125.686 426.556 125.024ZM408.258 120.784C408.019 122.022 407.587 122.915 406.958 123.463H415.439V113.195H408.871L408.729 116.088C408.652 117.98 408.496 119.545 408.258 120.784ZM420.493 123.463V129.335H417.923V125.846H405.273V129.335H402.675V123.463H403.475C404.446 123.407 405.112 122.726 405.474 121.421C405.835 120.117 406.083 118.273 406.216 115.89L406.445 110.813H418.18V123.463H420.493ZM376.463 110.813H379.204V121.762L388.484 110.813H390.968V125.846H388.227V114.897L378.976 125.846H376.463V110.813ZM373.317 113.195H367.777V125.846H365.036V113.195H359.497V110.813H373.317V113.195ZM341.874 110.813H344.615V121.762L353.896 110.813H356.38V125.846H353.638V114.897L344.388 125.846H341.874V110.813ZM322.486 110.813H325.227V117.195H333.85V110.813H336.591V125.846H333.85V119.549H325.227V125.846H322.486V110.813ZM313.149 122.982C313.901 122.547 314.495 121.928 314.933 121.123C315.372 120.32 315.591 119.388 315.591 118.33C315.591 117.289 315.372 116.367 314.933 115.564C314.495 114.761 313.901 114.142 313.149 113.705C312.398 113.271 311.554 113.053 310.623 113.053C309.69 113.053 308.842 113.271 308.081 113.705C307.319 114.142 306.725 114.761 306.297 115.564C305.869 116.367 305.654 117.289 305.654 118.33C305.654 119.388 305.869 120.32 306.297 121.123C306.725 121.928 307.319 122.547 308.081 122.982C308.842 123.416 309.69 123.633 310.623 123.633C311.554 123.633 312.398 123.416 313.149 122.982ZM314.562 111.649C315.724 112.302 316.638 113.209 317.304 114.372C317.97 115.536 318.304 116.854 318.304 118.33C318.304 119.804 317.97 121.123 317.304 122.287C316.638 123.449 315.724 124.362 314.562 125.024C313.402 125.686 312.088 126.017 310.623 126.017C309.289 126.017 308.081 125.742 306.996 125.194C305.911 124.646 305.021 123.875 304.327 122.883C303.631 121.89 303.198 120.76 303.027 119.493H299.972V125.846H297.23V110.813H299.972V116.968H303.055C303.246 115.72 303.688 114.619 304.384 113.664C305.078 112.708 305.963 111.971 307.039 111.45C308.114 110.931 309.309 110.671 310.623 110.671C312.088 110.671 313.402 110.997 314.562 111.649ZM289.855 123.067C290.493 122.556 290.812 121.8 290.812 120.797C290.812 119.814 290.502 119.095 289.884 118.641C289.265 118.188 288.318 117.951 287.043 117.932L283.445 117.875V123.775L287.043 123.804C288.28 123.823 289.217 123.577 289.855 123.067ZM292.096 117.223C293.106 118.074 293.61 119.275 293.61 120.825C293.61 122.452 293.062 123.704 291.968 124.585C290.873 125.463 289.307 125.894 287.271 125.875L280.704 125.846V110.813H283.445V115.89L287.7 115.918C289.622 115.938 291.087 116.371 292.096 117.223ZM275.405 110.813V125.846H272.921V114.869L267.267 124.144H266.068L260.472 114.84V125.846H257.958V110.813H260.785L266.724 120.968L272.835 110.813H275.405ZM248.524 122.967C249.295 122.523 249.899 121.899 250.338 121.094C250.775 120.291 250.995 119.369 250.995 118.33C250.995 117.289 250.775 116.367 250.338 115.564C249.899 114.761 249.295 114.142 248.524 113.705C247.753 113.271 246.883 113.053 245.912 113.053C244.941 113.053 244.07 113.271 243.299 113.705C242.528 114.142 241.919 114.761 241.471 115.564C241.024 116.367 240.801 117.289 240.801 118.33C240.801 119.369 241.024 120.291 241.471 121.094C241.919 121.899 242.528 122.523 243.299 122.967C244.07 123.411 244.941 123.633 245.912 123.633C246.883 123.633 247.753 123.411 248.524 122.967ZM241.857 125.024C240.658 124.362 239.719 123.449 239.045 122.287C238.369 121.123 238.031 119.804 238.031 118.33C238.031 116.854 238.369 115.536 239.045 114.372C239.719 113.209 240.658 112.302 241.857 111.649C243.057 110.997 244.408 110.671 245.912 110.671C247.415 110.671 248.762 110.997 249.952 111.649C251.142 112.302 252.074 113.209 252.751 114.372C253.426 115.536 253.764 116.854 253.764 118.33C253.764 119.804 253.426 121.123 252.751 122.287C252.074 123.449 251.142 124.362 249.952 125.024C248.762 125.686 247.415 126.017 245.912 126.017C244.408 126.017 243.057 125.686 241.857 125.024ZM227.292 117.109H223.123V125.846H220.326V105.99H223.123V114.614H227.349L233.631 105.99H236.687L229.548 115.607L237.029 125.846H233.773L227.292 117.109ZM630.03 61.2758C632.676 63.8194 634 67.5901 634 72.5889V92.3714H625.865V73.6231C625.865 70.6074 625.15 68.3339 623.718 66.8031C622.286 65.2741 620.247 64.5079 617.601 64.5079C614.607 64.5079 612.242 65.4027 610.507 67.1906C608.772 68.9797 607.904 71.5545 607.904 74.917V92.3714H599.77V44.4025H607.904V61.858C609.248 60.4352 610.908 59.3472 612.882 58.5924C614.857 57.84 617.058 57.4611 619.488 57.4611C623.869 57.4611 627.384 58.7332 630.03 61.2758ZM569.867 90.5621C567.004 89.0532 564.769 86.952 563.165 84.2578C561.559 81.5647 560.756 78.5154 560.756 75.1107C560.756 71.7067 561.559 68.6676 563.165 65.9954C564.769 63.323 566.993 61.2336 569.835 59.7236C572.676 58.216 575.919 57.4611 579.564 57.4611C582.99 57.4611 585.996 58.1513 588.576 59.5299C591.158 60.9102 593.101 62.8924 594.402 65.4782L588.154 69.0984C587.155 67.5036 585.908 66.3084 584.412 65.51C582.916 64.7137 581.277 64.3141 579.499 64.3141C576.462 64.3141 573.945 65.2949 571.95 67.2563C569.954 69.2177 568.957 71.8354 568.957 75.1107C568.957 78.3867 569.943 81.0043 571.917 82.9651C573.891 84.9265 576.418 85.9072 579.499 85.9072C581.277 85.9072 582.916 85.5084 584.412 84.7104C585.908 83.9137 587.155 82.7178 588.154 81.123L594.402 84.7432C593.056 87.329 591.093 89.323 588.512 90.7223C585.93 92.1233 582.948 92.8238 579.564 92.8238C575.962 92.8238 572.731 92.07 569.867 90.5621ZM558.57 57.4611V65.1547C557.876 65.025 557.247 64.961 556.682 64.961C553.515 64.961 551.043 65.8767 549.265 67.7078C547.485 69.5412 546.596 72.1806 546.596 75.6278V92.3714H538.462V57.8493H546.205V62.8924C548.548 59.2722 552.669 57.4611 558.57 57.4611ZM518.594 85.5509C520.177 84.6245 521.295 83.2989 521.945 81.5751V77.5668H513.55C508.864 77.5668 506.522 79.0976 506.522 82.1574C506.522 83.6224 507.108 84.7864 508.279 85.6478C509.451 86.5109 511.077 86.9416 513.16 86.9416C515.198 86.9416 517.01 86.4781 518.594 85.5509ZM526.012 61.1142C528.723 63.5496 530.079 67.2234 530.079 72.1363V92.3714H522.4V88.1696C521.402 89.6782 519.982 90.8313 518.138 91.6283C516.293 92.4243 514.07 92.8238 511.467 92.8238C508.864 92.8238 506.587 92.3811 504.634 91.4989C502.682 90.6151 501.174 89.387 500.112 87.8134C499.048 86.2411 498.517 84.463 498.517 82.4808C498.517 79.3778 499.678 76.8887 501.999 75.0139C504.319 73.1389 507.975 72.2014 512.964 72.2014H521.945V71.6842C521.945 69.2714 521.218 67.4171 519.765 66.1241C518.311 64.8313 516.153 64.1844 513.289 64.1844C511.337 64.1844 509.418 64.4871 507.53 65.0897C505.643 65.6944 504.049 66.535 502.747 67.6109L499.558 61.7283C501.38 60.3498 503.571 59.2936 506.131 58.5602C508.69 57.8279 511.402 57.4611 514.266 57.4611C519.384 57.4611 523.301 58.6795 526.012 61.1142ZM470.783 66.2219C468.981 67.7517 467.886 69.7885 467.496 72.3312H487.213C486.866 69.8318 485.803 67.8046 484.025 66.2531C482.246 64.7015 480.033 63.9267 477.387 63.9267C474.784 63.9267 472.582 64.6919 470.783 66.2219ZM494.827 77.6966H467.56C468.038 80.2398 469.285 82.2542 471.303 83.7407C473.32 85.2275 475.826 85.9712 478.818 85.9712C482.636 85.9712 485.782 84.7214 488.254 82.2213L492.615 87.1993C491.054 89.0532 489.079 90.4538 486.693 91.4017C484.307 92.3499 481.617 92.8238 478.624 92.8238C474.805 92.8238 471.443 92.07 468.537 90.5621C465.629 89.0532 463.384 86.952 461.801 84.2578C460.217 81.5647 459.425 78.5154 459.425 75.1107C459.425 71.7483 460.196 68.7213 461.736 66.0272C463.276 63.3341 465.413 61.2336 468.147 59.7236C470.88 58.216 473.96 57.4611 477.387 57.4611C480.771 57.4611 483.797 58.2049 486.465 59.6925C489.134 61.1782 491.217 63.2694 492.713 65.9625C494.209 68.6573 494.958 71.7708 494.958 75.3044C494.958 75.8648 494.915 76.6622 494.827 77.6966ZM426.997 91.5301C423.722 90.54 421.13 89.2265 419.222 87.5874L422.15 81.058C424.015 82.524 426.304 83.7192 429.016 84.6463C431.727 85.5734 434.45 86.036 437.182 86.036C440.566 86.036 443.094 85.4974 444.764 84.4198C446.434 83.3428 447.27 81.9204 447.27 80.1527C447.27 78.8606 446.803 77.7934 445.871 76.9528C444.937 76.1122 443.755 75.4556 442.324 74.981C440.892 74.507 438.939 73.9691 436.467 73.3654C432.995 72.5473 430.187 71.7274 428.039 70.9083C425.892 70.0902 424.048 68.8077 422.508 67.0615C420.968 65.3163 420.198 62.9563 420.198 59.983C420.198 57.4836 420.881 55.2099 422.248 53.1629C423.614 51.1157 425.674 49.4892 428.43 48.2818C431.185 47.0752 434.557 46.4709 438.549 46.4709C441.326 46.4709 444.058 46.8168 446.75 47.5053C449.438 48.1954 451.76 49.1865 453.712 50.4793L451.044 57.0087C449.049 55.8457 446.965 54.9625 444.796 54.3581C442.627 53.7552 440.523 53.4536 438.484 53.4536C435.143 53.4536 432.66 54.014 431.033 55.1348C429.406 56.2556 428.593 57.7421 428.593 59.5945C428.593 60.8877 429.059 61.9444 429.992 62.7626C430.924 63.5825 432.106 64.2284 433.538 64.7015C434.971 65.1772 436.922 65.7152 439.396 66.3188C442.78 67.0937 445.555 67.9021 447.725 68.742C449.894 69.5826 451.749 70.8661 453.289 72.5889C454.829 74.3133 455.599 76.6404 455.599 79.5715C455.599 82.0709 454.916 84.3333 453.55 86.3587C452.182 88.3859 450.11 90.0014 447.334 91.2076C444.558 92.4139 441.174 93.0179 437.182 93.0179C433.669 93.0179 430.274 92.5208 426.997 91.5301ZM416.117 57.4611V65.1547C415.424 65.025 414.794 64.961 414.23 64.961C411.062 64.961 408.59 65.8767 406.812 67.7078C405.033 69.5412 404.144 72.1806 404.144 75.6278V92.3714H396.009V57.8493H403.752V62.8924C406.095 59.2722 410.216 57.4611 416.117 57.4611ZM378.7 82.9323C380.651 80.9508 381.627 78.3434 381.627 75.1107C381.627 71.8779 380.651 69.2714 378.7 67.2875C376.746 65.306 374.273 64.3141 371.281 64.3141C368.286 64.3141 365.823 65.306 363.894 67.2875C361.963 69.2714 360.998 71.8779 360.998 75.1107C360.998 78.3434 361.963 80.9508 363.894 82.9323C365.823 84.9162 368.286 85.9072 371.281 85.9072C374.273 85.9072 376.746 84.9162 378.7 82.9323ZM361.779 90.5621C358.958 89.0532 356.757 86.952 355.174 84.2578C353.59 81.5647 352.798 78.5154 352.798 75.1107C352.798 71.7067 353.59 68.6676 355.174 65.9954C356.757 63.323 358.958 61.2336 361.779 59.7236C364.598 58.216 367.766 57.4611 371.281 57.4611C374.838 57.4611 378.026 58.216 380.846 59.7236C383.666 61.2336 385.868 63.323 387.452 65.9954C389.035 68.6676 389.827 71.7067 389.827 75.1107C389.827 78.5154 389.035 81.5647 387.452 84.2578C385.868 86.952 383.666 89.0532 380.846 90.5621C378.026 92.07 374.838 92.8238 371.281 92.8238C367.766 92.8238 364.598 92.07 361.779 90.5621ZM342.933 61.2758C345.578 63.8194 346.903 67.5901 346.903 72.5889V92.3714H338.768V73.6231C338.768 70.6074 338.052 68.3339 336.621 66.8031C335.189 65.2741 333.149 64.5079 330.503 64.5079C327.51 64.5079 325.145 65.4027 323.409 67.1906C321.674 68.9797 320.806 71.5545 320.806 74.917V92.3714H312.671V57.8493H320.417V62.3101C321.761 60.7164 323.453 59.5091 325.493 58.6893C327.53 57.8711 329.83 57.4611 332.391 57.4611C336.772 57.4611 340.286 58.7332 342.933 61.2758ZM295.362 82.9323C297.315 80.9508 298.291 78.3434 298.291 75.1107C298.291 71.8779 297.315 69.2714 295.362 67.2875C293.41 65.306 290.938 64.3141 287.943 64.3141C284.951 64.3141 282.487 65.306 280.557 67.2875C278.626 69.2714 277.662 71.8779 277.662 75.1107C277.662 78.3434 278.626 80.9508 280.557 82.9323C282.487 84.9162 284.951 85.9072 287.943 85.9072C290.938 85.9072 293.41 84.9162 295.362 82.9323ZM278.443 90.5621C275.622 89.0532 273.42 86.952 271.837 84.2578C270.253 81.5647 269.462 78.5154 269.462 75.1107C269.462 71.7067 270.253 68.6676 271.837 65.9954C273.42 63.323 275.622 61.2336 278.443 59.7236C281.262 58.216 284.43 57.4611 287.943 57.4611C291.5 57.4611 294.689 58.216 297.51 59.7236C300.33 61.2336 302.531 63.323 304.115 65.9954C305.698 68.6676 306.491 71.7067 306.491 75.1107C306.491 78.5154 305.698 81.5647 304.115 84.2578C302.531 86.952 300.33 89.0532 297.51 90.5621C294.689 92.07 291.5 92.8238 287.943 92.8238C284.43 92.8238 281.262 92.07 278.443 90.5621ZM239.846 85.2604C243.186 85.2604 246.126 84.6245 248.664 83.3526C251.201 82.083 253.155 80.272 254.521 77.9231C255.887 75.5743 256.571 72.8482 256.571 69.7452C256.571 66.6412 255.887 63.9163 254.521 61.5664C253.155 59.2185 251.201 57.4076 248.664 56.1363C246.126 54.865 243.186 54.2291 239.846 54.2291H228.783V85.2604H239.846ZM220.323 47.1178H240.236C245.095 47.1178 249.412 48.0553 253.187 49.9302C256.961 51.8052 259.89 54.455 261.972 57.8815C264.055 61.308 265.096 65.2626 265.096 69.7452C265.096 74.2276 264.055 78.1808 261.972 81.6073C259.89 85.0338 256.961 87.6843 253.187 89.5597C249.412 91.4336 245.095 92.3714 240.236 92.3714H220.323V47.1178ZM70.4285 55.1475C70.4285 44.5141 73.072 34.4822 77.7385 25.6661C78.365 24.483 78.1254 23.0333 77.1532 22.1078C70.41 15.6909 63.56 9.01263 57.5455 1.26816C56.9469 0.504791 56.3601 0 55.5076 0C54.6548 0 54.0681 0.504791 53.4694 1.26816C32.0416 28.8622 0 42.9156 0 79.8524C0 110.307 24.851 135 55.5076 135C72.8504 135 88.3334 127.096 98.5122 114.717C99.4893 113.529 99.3769 111.788 98.2769 110.71C83.6664 96.3963 70.4285 80.4792 70.4285 55.1475ZM78.8957 55.1475C78.8957 24.6929 103.746 0 134.403 0C165.06 0 189.911 24.6929 189.911 55.1475C189.911 92.0853 157.869 106.138 136.441 133.733C135.842 134.495 135.256 135 134.403 135C133.55 135 132.964 134.495 132.365 133.733C110.937 106.138 78.8957 92.0853 78.8957 55.1475Z" fill="#FF2A23"/>
</svg>
