<svg width="997" height="135" viewBox="0 0 997 135" fill="none" xmlns="http://www.w3.org/2000/svg">
<g clip-path="url(#clip0_204_169)">
<path fill-rule="evenodd" clip-rule="evenodd" d="M61.9944 63.3415C61.9318 53.1291 70.1549 44.7651 80.3829 44.7024C90.6109 44.6241 98.9593 52.8472 99.0219 63.0752C99.1159 75.4803 88.465 80.2732 81.3853 89.5928C81.1817 89.859 80.9937 90.0313 80.7118 90.0313C80.4299 90.0313 80.2262 89.859 80.0226 89.6084C72.8176 80.3985 62.0884 75.7466 61.9944 63.3415ZM68.6043 81.9649C68.9645 82.3251 69.0115 82.9046 68.6826 83.3119C65.3307 87.4782 60.1775 90.1723 54.3978 90.2193C44.1699 90.2976 35.8214 82.0588 35.7431 71.8308C35.6491 59.4413 46.3 54.6328 53.3797 45.3133C53.5834 45.0627 53.7713 44.8904 54.0689 44.8904C54.3509 44.8904 54.5388 45.047 54.7424 45.3133C56.763 47.8977 59.0654 50.1218 61.3366 52.252C61.6655 52.5653 61.7438 53.0508 61.5402 53.4581C60.0052 56.4184 59.1438 59.8016 59.1751 63.3728C59.2377 71.8778 63.686 77.1876 68.6043 81.9649ZM12.5461 43.8253L11.4654 46.3314L16.5715 48.5399L15.6317 50.7327L3.53985 45.5169L4.47963 43.3241L9.5858 45.5325L10.6979 42.9795L7.26766 36.8552L8.28576 34.5057L12.1232 41.5854L20.5186 39.3926L19.4065 41.9614L12.5461 43.8253ZM22.0379 36.354C20.931 36.8239 19.7981 36.9753 18.6391 36.8082C17.4695 36.6411 16.3784 36.1609 15.3655 35.3672C14.3525 34.5632 13.6269 33.6181 13.1883 32.5322C12.7497 31.4463 12.6244 30.3132 12.8124 29.1333C13.0108 27.9637 13.5121 26.8622 14.316 25.8284C15.12 24.8051 16.0651 24.0585 17.1511 23.5886C18.2475 23.1292 19.3752 22.9829 20.5343 23.15C21.7038 23.3171 22.7949 23.7974 23.8079 24.591C24.8208 25.3847 25.5465 26.3296 25.985 27.426C26.4236 28.512 26.5541 29.6397 26.3766 30.8093C26.1991 31.9892 25.7031 33.0909 24.8886 34.1142C24.0846 35.1479 23.1344 35.8946 22.0379 36.354ZM24.1994 30.684C24.3039 29.9113 24.1943 29.1595 23.8705 28.4285C23.5573 27.6975 23.0404 27.0501 22.3199 26.4863C21.5994 25.9224 20.8475 25.5726 20.0644 25.4368C19.2707 25.3115 18.5189 25.395 17.8089 25.6874C17.0989 25.9799 16.4827 26.4549 15.9607 27.1128C15.4386 27.7811 15.12 28.4963 15.0052 29.2586C14.8904 30.0209 14.9896 30.7728 15.3028 31.5141C15.6161 32.2554 16.133 32.9081 16.8535 33.472C17.574 34.0358 18.331 34.3804 19.1246 34.5057C19.9183 34.631 20.6752 34.5476 21.3958 34.2551C22.1163 33.9732 22.7323 33.4981 23.244 32.8298C23.766 32.1615 24.0846 31.4463 24.1994 30.684ZM35.7588 7.5496L43.1674 18.4354L41.3818 19.6415L35.9781 11.7003L36.4636 21.1765L35.6022 21.7717L27.0031 17.7619L32.4226 25.7344L30.6056 26.9718L23.2127 16.0703L25.2489 14.692L34.5214 19.1403L33.9105 8.80264L35.7588 7.5496ZM53.4894 7.1267C54.5545 7.56526 55.2906 8.4319 55.6979 9.72677C56.1364 11.0843 56.0163 12.2747 55.3376 13.2979C54.6693 14.3212 53.4894 15.094 51.7978 15.6161L46.347 17.339L42.3373 4.7929L44.6084 4.0724L45.9554 8.30143L49.4953 7.20501C51.0929 6.71429 52.4243 6.68813 53.4894 7.1267ZM53.1918 12.5931C53.5782 11.9979 53.6408 11.2826 53.3797 10.4473C53.1186 9.62229 52.6697 9.10541 52.0327 8.89662C51.3957 8.67734 50.5447 8.7295 49.4796 9.05325L46.488 9.96171L48.07 14.8799L51.0459 13.9558C52.0797 13.6425 52.795 13.1883 53.1918 12.5931ZM73.8827 0.861469C74.8956 1.43583 75.6891 2.22932 76.2635 3.24225C76.8482 4.26552 77.1406 5.42459 77.1406 6.71946C77.1406 8.00383 76.8482 9.15773 76.2635 10.181C75.6891 11.1939 74.8956 11.9927 73.8827 12.5774C72.8698 13.1621 71.7264 13.4494 70.4525 13.4389C69.2934 13.4494 68.244 13.2145 67.3042 12.7341C66.3539 12.2537 65.5761 11.575 64.9704 10.6979C64.3647 9.83124 63.9888 8.84446 63.8427 7.73756H61.18V13.2979H58.7992V0.125303H61.18V5.52906H63.874C64.0411 4.43265 64.4222 3.46671 65.0174 2.63139C65.6231 1.79608 66.3958 1.14857 67.3355 0.689174C68.2753 0.229776 69.3143 0 70.4525 0C71.7264 0 72.8698 0.287104 73.8827 0.861469ZM72.6453 10.7919C73.3032 10.4054 73.8201 9.86256 74.196 9.1629C74.5824 8.46323 74.7755 7.64875 74.7755 6.71946C74.7755 5.8005 74.5824 4.99135 74.196 4.29168C73.8201 3.59201 73.3032 3.04913 72.6453 2.66272C71.998 2.28681 71.267 2.09885 70.4525 2.09885C69.638 2.09885 68.9019 2.28681 68.244 2.66272C67.5757 3.04913 67.0588 3.59201 66.6934 4.29168C66.3174 5.00169 66.1295 5.811 66.1295 6.71946C66.1295 7.64875 66.3174 8.46323 66.6934 9.1629C67.0588 9.86256 67.5757 10.4054 68.244 10.7919C68.9019 11.1678 69.638 11.3557 70.4525 11.3557C71.267 11.3557 71.998 11.1678 72.6453 10.7919ZM83.5625 1.83258L85.818 2.60007L83.9854 7.89419L91.0808 10.3376L92.8977 5.05917L95.1532 5.84232L90.8458 18.2788L88.606 17.4956L90.4072 12.2955L83.3119 9.83641L81.5106 15.0522L79.2551 14.2691L83.5625 1.83258ZM101.998 9.38218L103.924 10.7919L98.2701 18.5294L110.44 15.5378L112.195 16.8221L104.441 27.4574L102.515 26.0477L108.154 18.3101L95.999 21.3018L94.2447 20.0174L101.998 9.38218ZM121.733 30.8876L118.695 27.1441L110.111 34.1455L108.592 32.2972L117.191 25.2959L114.137 21.568L115.75 20.2523L123.362 29.5719L121.733 30.8876ZM126.009 33.7852L126.996 35.9467L118.256 39.9252L130.332 43.2927L131.225 45.2663L119.259 50.717L118.256 48.5555L126.996 44.5771L114.92 41.2252L114.027 39.236L126.009 33.7852ZM123.582 75.261L118.444 75.2297L118.46 72.9899L121.514 73.0212L121.577 62.0101L118.522 61.9944L118.538 59.7233L123.676 59.7546V60.4594C123.718 61.3052 124.307 61.89 125.446 62.2137C126.594 62.527 128.207 62.7514 130.285 62.8872L134.734 63.1065L134.671 73.3188L123.597 73.2562L123.582 75.261ZM125.994 64.6258C124.908 64.4065 124.125 64.0255 123.644 63.4824L123.597 70.8597L132.604 70.9067L132.635 65.2054L130.097 65.0644C128.448 64.9809 127.079 64.8346 125.994 64.6258ZM121.091 79.2238C121.937 78.378 122.935 77.8141 124.083 77.5322C125.222 77.2503 126.412 77.2868 127.654 77.6418C128.896 77.9969 129.925 78.5973 130.74 79.4431C131.554 80.2889 132.091 81.2965 132.353 82.4661C132.615 83.6251 132.561 84.8312 132.196 86.0842C131.831 87.3478 131.23 88.3972 130.395 89.2325C129.56 90.0678 128.573 90.6265 127.435 90.9085C126.296 91.1904 125.106 91.1539 123.864 90.7988C122.621 90.4437 121.592 89.8382 120.778 88.9819C119.963 88.1361 119.42 87.1388 119.149 85.9903C118.878 84.8312 118.925 83.6251 119.29 82.3721C119.646 81.1085 120.245 80.0591 121.091 79.2238ZM121.217 85.2854C121.404 86.0372 121.785 86.6951 122.36 87.259C122.935 87.8228 123.655 88.2301 124.521 88.4807C125.399 88.7313 126.229 88.7731 127.012 88.606C127.795 88.4285 128.464 88.0734 129.017 87.5409C129.57 86.9979 129.961 86.3192 130.191 85.5047C130.422 84.7007 130.447 83.9227 130.27 83.1709C130.093 82.4191 129.717 81.7612 129.142 81.1974C128.578 80.623 127.858 80.2106 126.981 79.96C126.103 79.7094 125.273 79.6729 124.49 79.8503C123.707 80.0278 123.038 80.388 122.485 80.9311C121.921 81.4636 121.525 82.1371 121.295 82.9516C121.055 83.7556 121.029 84.5336 121.217 85.2854ZM127.67 98.0195L126.417 100.04L121.671 97.0797L117.692 103.439L122.423 106.399L121.17 108.42L110.002 101.434L111.27 99.4135L115.938 102.342L119.932 95.9833L115.249 93.0543L116.518 91.0338L127.67 98.0195ZM106.619 105.992C107.788 105.731 108.931 105.783 110.049 106.149C111.166 106.514 112.153 107.177 113.009 108.138C113.876 109.098 114.43 110.153 114.669 111.302C114.909 112.461 114.831 113.599 114.434 114.716C114.038 115.833 113.354 116.831 112.383 117.708C111.411 118.585 110.346 119.154 109.187 119.415C108.039 119.686 106.906 119.635 105.788 119.259C104.671 118.894 103.679 118.23 102.812 117.269C101.956 116.309 101.408 115.254 101.168 114.105C100.928 112.957 100.995 111.819 101.371 110.691C101.758 109.574 102.436 108.576 103.408 107.699C104.389 106.822 105.459 106.253 106.619 105.992ZM103.502 111.208C103.261 111.949 103.235 112.706 103.423 113.479C103.611 114.262 104.008 114.994 104.614 115.672C105.219 116.35 105.898 116.82 106.65 117.081C107.412 117.352 108.169 117.41 108.921 117.254C109.673 117.086 110.362 116.721 110.989 116.157C111.615 115.593 112.054 114.947 112.304 114.215C112.544 113.484 112.576 112.727 112.398 111.944C112.221 111.161 111.829 110.43 111.223 109.751C110.607 109.072 109.923 108.597 109.172 108.326C108.409 108.065 107.647 108.013 106.885 108.169C106.133 108.326 105.439 108.686 104.802 109.25C104.175 109.814 103.742 110.466 103.502 111.208ZM92.5531 129.267C91.394 129.194 90.3394 128.829 89.3891 128.171C88.4389 127.502 87.6767 126.573 87.1023 125.383C86.528 124.192 86.2774 123.013 86.3505 121.843C86.4237 120.684 86.7891 119.63 87.4469 118.679C88.1153 117.728 89.0237 116.977 90.1723 116.424C91.0286 116.016 91.8901 115.808 92.7567 115.797C93.6233 115.786 94.4535 115.974 95.2471 116.361L92.2868 110.221L94.4326 109.187L102.249 125.399L100.181 126.385L99.2725 124.506C99.1159 125.394 98.7505 126.182 98.1761 126.871C97.6123 127.56 96.8866 128.119 95.999 128.547C94.8504 129.09 93.7017 129.33 92.5531 129.267ZM89.4675 119.744C89.0289 120.382 88.7888 121.102 88.747 121.906C88.6948 122.709 88.8671 123.519 89.2638 124.333C89.6606 125.159 90.188 125.806 90.8458 126.276C91.5037 126.735 92.2137 126.991 92.976 127.043C93.7486 127.095 94.5161 126.938 95.2785 126.573C96.0198 126.218 96.6098 125.716 97.0484 125.07C97.4869 124.432 97.7324 123.718 97.7846 122.924C97.8264 122.12 97.6487 121.31 97.252 120.496C96.8656 119.671 96.3435 119.024 95.6857 118.554C95.0383 118.084 94.3282 117.822 93.5555 117.771C92.7724 117.719 92.0049 117.869 91.253 118.225C90.4907 118.59 89.8955 119.097 89.4675 119.744ZM79.8503 121.029C80.9676 121.436 81.9022 122.094 82.654 123.002C83.3954 123.9 83.8757 124.987 84.095 126.26C84.3038 127.533 84.2047 128.724 83.7974 129.831C83.3797 130.928 82.7062 131.847 81.7769 132.588C80.8371 133.319 79.725 133.794 78.4407 134.013C77.1458 134.233 75.9397 134.143 74.8225 133.747C73.7156 133.351 72.7863 132.698 72.0345 131.789C71.2826 130.892 70.8023 129.805 70.5935 128.531C70.3847 127.247 70.4838 126.056 70.8911 124.96C71.2983 123.853 71.9666 122.928 72.8959 122.188C73.8252 121.447 74.9321 120.971 76.2165 120.762C77.5114 120.543 78.7226 120.632 79.8503 121.029ZM74.4152 123.77C73.82 124.26 73.392 124.886 73.1309 125.649C72.8698 126.401 72.8176 127.226 72.9742 128.124C73.1204 129.021 73.439 129.789 73.9297 130.426C74.4204 131.053 75.0313 131.502 75.7623 131.773C76.4828 132.035 77.2608 132.098 78.0961 131.961C78.9314 131.816 79.6467 131.502 80.2419 131.022C80.8371 130.531 81.2705 129.905 81.5419 129.142C81.8134 128.39 81.8709 127.565 81.7142 126.667C81.5681 125.77 81.2443 125.002 80.7431 124.365C80.2419 123.738 79.6259 123.289 78.8949 123.018C78.1744 122.747 77.3964 122.678 76.5611 122.814C75.7258 122.95 75.0104 123.268 74.4152 123.77ZM55.3533 124.333C55.4681 123.185 55.9903 122.34 56.9196 121.796C57.8489 121.263 59.1699 121.087 60.8824 121.263L67.1789 121.906L65.8475 135L59.7703 134.373C58.2248 134.217 57.0449 133.805 56.2304 133.136C55.4159 132.458 55.0609 131.585 55.1653 130.52C55.2385 129.82 55.4838 129.241 55.9015 128.782C56.3296 128.312 56.8883 127.978 57.5774 127.779C55.9172 127.184 55.1758 126.036 55.3533 124.333ZM64.0933 129.126L60.5378 128.766C59.6293 128.672 58.9245 128.766 58.4233 129.048C57.922 129.33 57.6401 129.784 57.5774 130.411C57.4521 131.664 58.3084 132.384 60.1462 132.572L63.7174 132.932L64.0933 129.126ZM58.5799 123.347C58.0578 123.608 57.7602 124.067 57.6871 124.725C57.6244 125.403 57.8019 125.931 58.2196 126.307C58.6374 126.683 59.3317 126.918 60.3028 127.012L64.2656 127.419L64.6572 123.488L60.851 123.112C59.8694 123.007 59.1124 123.085 58.5799 123.347ZM39.5179 120.308L41.93 121.577L44.5301 116.659L46.6446 117.771L40.5047 129.424L38.3902 128.312L40.9903 123.394L38.5312 122.094L32.1563 125.023L29.8851 123.832L37.2624 120.559L35.7118 112.022L38.2022 113.322L39.5179 120.308ZM18.3728 112.821C18.0282 111.714 17.9969 110.602 18.2788 109.485C18.5607 108.357 19.1559 107.313 20.0644 106.352C20.9833 105.392 22.0014 104.739 23.1187 104.394C24.2359 104.05 25.3533 104.024 26.4706 104.316C27.5878 104.598 28.6113 105.178 29.5405 106.055C30.2192 106.712 30.7204 107.443 31.0442 108.247C31.3575 109.051 31.4723 109.897 31.3888 110.785L36.0877 105.851L37.8107 107.496L25.4055 120.527L23.7609 118.945L25.1862 117.426C24.3091 117.594 23.4476 117.531 22.6018 117.238C21.756 116.956 20.978 116.475 20.268 115.797C19.3491 114.92 18.7174 113.928 18.3728 112.821ZM26.1887 106.572C25.4368 106.384 24.6745 106.415 23.9018 106.666C23.1395 106.906 22.4452 107.355 21.8187 108.013C21.1921 108.67 20.7744 109.391 20.5656 110.174C20.3672 110.947 20.3777 111.704 20.5969 112.445C20.8162 113.187 21.234 113.844 21.85 114.419C22.4452 114.994 23.1239 115.369 23.8862 115.546C24.638 115.734 25.395 115.708 26.1573 115.468C26.9197 115.228 27.614 114.779 28.2405 114.121C28.867 113.463 29.2848 112.748 29.4936 111.975C29.7023 111.203 29.6972 110.44 29.4779 109.688C29.2481 108.937 28.8357 108.279 28.2405 107.715C27.6245 107.13 26.9405 106.749 26.1887 106.572ZM21.5211 97.8785C21.5316 99.0794 21.2391 100.186 20.6439 101.199C20.0592 102.212 19.2029 103.042 18.0752 103.69C16.9579 104.327 15.8092 104.645 14.6293 104.645C13.4597 104.645 12.3687 104.332 11.3557 103.705C10.3325 103.089 9.49699 102.212 8.84964 101.074C8.20228 99.9356 7.86803 98.7765 7.84719 97.5966C7.82636 96.4167 8.11347 95.3203 8.70866 94.3073C9.30386 93.2841 10.1602 92.4539 11.2774 91.8169C12.3947 91.1696 13.5434 90.851 14.7233 90.8615C15.9032 90.8615 16.9996 91.1642 18.0125 91.7699C19.0255 92.386 19.8608 93.2579 20.5186 94.3857C21.166 95.5239 21.5002 96.6881 21.5211 97.8785ZM17.0727 93.7435C16.3941 93.3571 15.6579 93.1744 14.8643 93.1953C14.0603 93.2161 13.2614 93.451 12.4678 93.9001C11.6846 94.3595 11.079 94.9287 10.6509 95.6074C10.2332 96.2861 10.0244 97.0119 10.0244 97.7846C10.0349 98.5572 10.2488 99.309 10.6665 100.04C11.0843 100.771 11.6272 101.335 12.2955 101.732C12.9534 102.118 13.6844 102.306 14.4883 102.296C15.2923 102.285 16.0911 102.05 16.8848 101.591C17.6784 101.142 18.284 100.573 18.7017 99.8834C19.1194 99.1942 19.3282 98.4632 19.3282 97.6906C19.3282 96.9179 19.1194 96.1661 18.7017 95.4351C18.284 94.7041 17.7411 94.1402 17.0727 93.7435ZM9.83641 75.9032C10.9537 75.6108 11.9248 75.8041 12.7497 76.4828C13.5851 77.1719 14.2169 78.3467 14.645 80.007L16.2269 86.1469L3.49286 89.4518L1.95788 83.5312C1.56114 82.0275 1.54015 80.7745 1.89523 79.772C2.23982 78.7801 2.93416 78.1482 3.97842 77.8768C4.64676 77.6993 5.27329 77.7306 5.85799 77.9708C6.44269 78.2005 6.94391 78.6024 7.36164 79.1768C7.35115 77.4225 8.17612 76.3313 9.83641 75.9032ZM8.37974 85.771L7.48695 82.3094C7.25717 81.4218 6.92308 80.7901 6.48451 80.4142C6.04594 80.0488 5.52389 79.9443 4.9182 80.1009C3.69648 80.4142 3.32057 81.4688 3.79046 83.2649L4.68326 86.7264L8.37974 85.771ZM11.8883 78.5973C11.4602 78.2005 10.9223 78.0856 10.275 78.2527C9.61712 78.4198 9.18373 78.7644 8.97494 79.2865C8.77649 79.8085 8.79747 80.5447 9.03759 81.495L10.04 85.3481L13.8618 84.3456L12.9064 80.6491C12.6558 79.6885 12.3163 79.0045 11.8883 78.5973ZM0 73.7574V71.3766H9.5858L0 63.3101V61.1486H13.1726V63.5294H3.57118L13.157 71.5802V73.7731L0 73.7574Z" fill="#FF2A23"/>
</g>
<path d="M205.8 55.4C201.933 55.4 198.92 54.32 196.76 52.16C194.6 49.9733 193.52 46.8533 193.52 42.8V27H198.72V42.6C198.72 48.0933 201.093 50.84 205.84 50.84C210.56 50.84 212.92 48.0933 212.92 42.6V27H218.04V42.8C218.04 46.8533 216.96 49.9733 214.8 52.16C212.667 54.32 209.667 55.4 205.8 55.4ZM236.963 33.4C239.656 33.4 241.816 34.1867 243.443 35.76C245.069 37.3333 245.883 39.6667 245.883 42.76V55H240.883V43.4C240.883 41.5333 240.443 40.1333 239.563 39.2C238.683 38.24 237.429 37.76 235.803 37.76C233.963 37.76 232.509 38.32 231.443 39.44C230.376 40.5333 229.843 42.12 229.843 44.2V55H224.843V33.64H229.603V36.4C230.429 35.4133 231.469 34.6667 232.723 34.16C233.976 33.6533 235.389 33.4 236.963 33.4ZM252.225 33.64H257.225V55H252.225V33.64ZM254.745 30.12C253.839 30.12 253.079 29.84 252.465 29.28C251.852 28.6933 251.545 27.9733 251.545 27.12C251.545 26.2667 251.852 25.56 252.465 25C253.079 24.4133 253.839 24.12 254.745 24.12C255.652 24.12 256.412 24.4 257.025 24.96C257.639 25.4933 257.945 26.1733 257.945 27C257.945 27.88 257.639 28.6267 257.025 29.24C256.439 29.8267 255.679 30.12 254.745 30.12ZM276.628 53.84C276.041 54.32 275.321 54.68 274.468 54.92C273.641 55.16 272.761 55.28 271.828 55.28C269.481 55.28 267.668 54.6667 266.388 53.44C265.108 52.2133 264.468 50.4267 264.468 48.08V37.8H260.948V33.8H264.468V28.92H269.468V33.8H275.188V37.8H269.468V47.96C269.468 49 269.721 49.8 270.228 50.36C270.734 50.8933 271.468 51.16 272.428 51.16C273.548 51.16 274.481 50.8667 275.228 50.28L276.628 53.84ZM300.35 33.64L290.35 56.72C289.417 59.04 288.284 60.6667 286.95 61.6C285.617 62.56 284.004 63.04 282.11 63.04C281.044 63.04 279.99 62.8667 278.95 62.52C277.91 62.1733 277.057 61.6933 276.39 61.08L278.39 57.4C278.87 57.8533 279.43 58.2133 280.07 58.48C280.737 58.7467 281.404 58.88 282.07 58.88C282.95 58.88 283.67 58.6533 284.23 58.2C284.817 57.7467 285.35 56.9867 285.83 55.92L286.19 55.08L276.87 33.64H282.07L288.79 49.44L295.55 33.64H300.35Z" fill="#F73232"/>
<path d="M311.25 42.24H331.25V45.52H311.25V42.24ZM352.305 33.32C354.545 33.32 356.558 33.8 358.345 34.76C360.131 35.6933 361.531 37 362.545 38.68C363.558 40.3333 364.065 42.2133 364.065 44.32C364.065 46.4267 363.558 48.32 362.545 50C361.531 51.68 360.131 53 358.345 53.96C356.558 54.8933 354.545 55.36 352.305 55.36C350.358 55.36 348.598 55.04 347.025 54.4C345.451 53.76 344.118 52.84 343.025 51.64L345.905 48.84C347.585 50.52 349.651 51.36 352.105 51.36C353.918 51.36 355.465 50.88 356.745 49.92C358.051 48.9333 358.891 47.6267 359.265 46H349.385V42.4H359.225C358.825 40.8267 357.985 39.5867 356.705 38.68C355.425 37.7467 353.891 37.28 352.105 37.28C349.651 37.28 347.585 38.1333 345.905 39.84L343.025 37.04C344.091 35.8133 345.411 34.8933 346.985 34.28C348.585 33.64 350.358 33.32 352.305 33.32ZM385.046 37.88H377.566V55H372.566V37.88H365.046V33.64H385.046V37.88ZM397.255 55.28C395.095 55.28 393.148 54.8133 391.415 53.88C389.682 52.9467 388.322 51.6533 387.335 50C386.375 48.32 385.895 46.4267 385.895 44.32C385.895 42.2133 386.375 40.3333 387.335 38.68C388.322 37.0267 389.682 35.7333 391.415 34.8C393.148 33.8667 395.095 33.4 397.255 33.4C399.442 33.4 401.402 33.8667 403.135 34.8C404.868 35.7333 406.215 37.0267 407.175 38.68C408.162 40.3333 408.655 42.2133 408.655 44.32C408.655 46.4267 408.162 48.32 407.175 50C406.215 51.6533 404.868 52.9467 403.135 53.88C401.402 54.8133 399.442 55.28 397.255 55.28ZM397.255 51C399.095 51 400.615 50.3867 401.815 49.16C403.015 47.9333 403.615 46.32 403.615 44.32C403.615 42.32 403.015 40.7067 401.815 39.48C400.615 38.2533 399.095 37.64 397.255 37.64C395.415 37.64 393.895 38.2533 392.695 39.48C391.522 40.7067 390.935 42.32 390.935 44.32C390.935 46.32 391.522 47.9333 392.695 49.16C393.895 50.3867 395.415 51 397.255 51ZM434.369 55.28C432.156 55.28 430.169 54.8133 428.409 53.88C426.649 52.9467 425.276 51.6533 424.289 50C423.302 48.32 422.809 46.4267 422.809 44.32C422.809 42.2133 423.302 40.3333 424.289 38.68C425.276 37.0267 426.636 35.7333 428.369 34.8C430.129 33.8667 432.129 33.4 434.369 33.4C436.476 33.4 438.316 33.8267 439.889 34.68C441.489 35.5333 442.689 36.76 443.489 38.36L439.649 40.6C439.036 39.6133 438.262 38.88 437.329 38.4C436.422 37.8933 435.422 37.64 434.329 37.64C432.462 37.64 430.916 38.2533 429.689 39.48C428.462 40.68 427.849 42.2933 427.849 44.32C427.849 46.3467 428.449 47.9733 429.649 49.2C430.876 50.4 432.436 51 434.329 51C435.422 51 436.422 50.76 437.329 50.28C438.262 49.7733 439.036 49.0267 439.649 48.04L443.489 50.28C442.662 51.88 441.449 53.12 439.849 54C438.276 54.8533 436.449 55.28 434.369 55.28ZM467.579 44.44C467.579 44.7867 467.552 45.28 467.499 45.92H450.739C451.032 47.4933 451.792 48.7467 453.019 49.68C454.272 50.5867 455.819 51.04 457.659 51.04C460.005 51.04 461.939 50.2667 463.459 48.72L466.139 51.8C465.179 52.9467 463.965 53.8133 462.499 54.4C461.032 54.9867 459.379 55.28 457.539 55.28C455.192 55.28 453.125 54.8133 451.339 53.88C449.552 52.9467 448.165 51.6533 447.179 50C446.219 48.32 445.739 46.4267 445.739 44.32C445.739 42.24 446.205 40.3733 447.139 38.72C448.099 37.04 449.419 35.7333 451.099 34.8C452.779 33.8667 454.672 33.4 456.779 33.4C458.859 33.4 460.712 33.8667 462.339 34.8C463.992 35.7067 465.272 37 466.179 38.68C467.112 40.3333 467.579 42.2533 467.579 44.44ZM456.779 37.4C455.179 37.4 453.819 37.88 452.699 38.84C451.605 39.7733 450.939 41.0267 450.699 42.6H462.819C462.605 41.0533 461.952 39.8 460.859 38.84C459.765 37.88 458.405 37.4 456.779 37.4ZM484.888 33.4C486.968 33.4 488.821 33.8533 490.448 34.76C492.101 35.6667 493.394 36.9467 494.328 38.6C495.261 40.2533 495.728 42.16 495.728 44.32C495.728 46.48 495.261 48.4 494.328 50.08C493.394 51.7333 492.101 53.0133 490.448 53.92C488.821 54.8267 486.968 55.28 484.888 55.28C482.008 55.28 479.728 54.32 478.048 52.4V62.76H473.048V33.64H477.808V36.44C478.634 35.4267 479.648 34.6667 480.848 34.16C482.074 33.6533 483.421 33.4 484.888 33.4ZM484.328 51C486.168 51 487.674 50.3867 488.848 49.16C490.048 47.9333 490.648 46.32 490.648 44.32C490.648 42.32 490.048 40.7067 488.848 39.48C487.674 38.2533 486.168 37.64 484.328 37.64C483.128 37.64 482.048 37.92 481.088 38.48C480.128 39.0133 479.368 39.7867 478.808 40.8C478.248 41.8133 477.968 42.9867 477.968 44.32C477.968 45.6533 478.248 46.8267 478.808 47.84C479.368 48.8533 480.128 49.64 481.088 50.2C482.048 50.7333 483.128 51 484.328 51ZM516.184 43.88C518.824 44.68 520.144 46.3867 520.144 49C520.144 50.92 519.424 52.4 517.984 53.44C516.544 54.48 514.41 55 511.584 55H500.704V33.64H511.144C513.757 33.64 515.797 34.12 517.264 35.08C518.73 36.04 519.464 37.4 519.464 39.16C519.464 40.2533 519.17 41.2 518.584 42C518.024 42.8 517.224 43.4267 516.184 43.88ZM505.464 42.56H510.704C513.29 42.56 514.584 41.6667 514.584 39.88C514.584 38.1467 513.29 37.28 510.704 37.28H505.464V42.56ZM511.184 51.36C513.93 51.36 515.304 50.4667 515.304 48.68C515.304 47.7467 514.984 47.0533 514.344 46.6C513.704 46.12 512.704 45.88 511.344 45.88H505.464V51.36H511.184ZM525.469 33.64H530.469V47.72L542.269 33.64H546.829V55H541.829V40.92L530.069 55H525.469V33.64ZM563.275 55.28C561.062 55.28 559.075 54.8133 557.315 53.88C555.555 52.9467 554.182 51.6533 553.195 50C552.209 48.32 551.715 46.4267 551.715 44.32C551.715 42.2133 552.209 40.3333 553.195 38.68C554.182 37.0267 555.542 35.7333 557.275 34.8C559.035 33.8667 561.035 33.4 563.275 33.4C565.382 33.4 567.222 33.8267 568.795 34.68C570.395 35.5333 571.595 36.76 572.395 38.36L568.555 40.6C567.942 39.6133 567.169 38.88 566.235 38.4C565.329 37.8933 564.329 37.64 563.235 37.64C561.369 37.64 559.822 38.2533 558.595 39.48C557.369 40.68 556.755 42.2933 556.755 44.32C556.755 46.3467 557.355 47.9733 558.555 49.2C559.782 50.4 561.342 51 563.235 51C564.329 51 565.329 50.76 566.235 50.28C567.169 49.7733 567.942 49.0267 568.555 48.04L572.395 50.28C571.569 51.88 570.355 53.12 568.755 54C567.182 54.8533 565.355 55.28 563.275 55.28ZM610.652 50.76V59.76H605.972V55H589.492V59.76H584.852V50.76H585.852C587.212 50.7067 588.132 49.84 588.612 48.16C589.119 46.4533 589.452 44.0533 589.612 40.96L589.892 33.64H607.492V50.76H610.652ZM594.172 41.32C594.066 43.7733 593.866 45.7733 593.572 47.32C593.279 48.8667 592.746 50.0133 591.972 50.76H602.492V37.88H594.292L594.172 41.32ZM634.478 33.64V55H629.478V37.88H621.478L621.278 42.12C621.144 44.9467 620.878 47.32 620.478 49.24C620.104 51.1333 619.451 52.64 618.518 53.76C617.611 54.8533 616.358 55.4 614.758 55.4C614.011 55.4 613.091 55.2533 611.998 54.96L612.238 50.76C612.611 50.84 612.931 50.88 613.198 50.88C614.211 50.88 614.971 50.48 615.478 49.68C615.984 48.8533 616.304 47.88 616.438 46.76C616.598 45.6133 616.731 43.9867 616.838 41.88L617.198 33.64H634.478ZM659.252 33.64V55H654.772V48.56H649.132L644.772 55H639.412L644.452 47.88C642.905 47.3467 641.718 46.5333 640.892 45.44C640.092 44.32 639.692 42.9467 639.692 41.32C639.692 38.8667 640.558 36.9733 642.292 35.64C644.025 34.3067 646.412 33.64 649.452 33.64H659.252ZM649.612 37.84C646.385 37.84 644.772 39.0533 644.772 41.48C644.772 43.88 646.332 45.08 649.452 45.08H654.772V37.84H649.612ZM686.552 55.28C684.392 55.28 682.445 54.8133 680.712 53.88C678.979 52.9467 677.619 51.6533 676.632 50C675.672 48.32 675.192 46.4267 675.192 44.32C675.192 42.2133 675.672 40.3333 676.632 38.68C677.619 37.0267 678.979 35.7333 680.712 34.8C682.445 33.8667 684.392 33.4 686.552 33.4C688.739 33.4 690.699 33.8667 692.432 34.8C694.165 35.7333 695.512 37.0267 696.472 38.68C697.459 40.3333 697.952 42.2133 697.952 44.32C697.952 46.4267 697.459 48.32 696.472 50C695.512 51.6533 694.165 52.9467 692.432 53.88C690.699 54.8133 688.739 55.28 686.552 55.28ZM686.552 51C688.392 51 689.912 50.3867 691.112 49.16C692.312 47.9333 692.912 46.32 692.912 44.32C692.912 42.32 692.312 40.7067 691.112 39.48C689.912 38.2533 688.392 37.64 686.552 37.64C684.712 37.64 683.192 38.2533 681.992 39.48C680.819 40.7067 680.232 42.32 680.232 44.32C680.232 46.32 680.819 47.9333 681.992 49.16C683.192 50.3867 684.712 51 686.552 51ZM714.731 33.4C716.811 33.4 718.665 33.8533 720.291 34.76C721.945 35.6667 723.238 36.9467 724.171 38.6C725.105 40.2533 725.571 42.16 725.571 44.32C725.571 46.48 725.105 48.4 724.171 50.08C723.238 51.7333 721.945 53.0133 720.291 53.92C718.665 54.8267 716.811 55.28 714.731 55.28C711.851 55.28 709.571 54.32 707.891 52.4V62.76H702.891V33.64H707.651V36.44C708.478 35.4267 709.491 34.6667 710.691 34.16C711.918 33.6533 713.265 33.4 714.731 33.4ZM714.171 51C716.011 51 717.518 50.3867 718.691 49.16C719.891 47.9333 720.491 46.32 720.491 44.32C720.491 42.32 719.891 40.7067 718.691 39.48C717.518 38.2533 716.011 37.64 714.171 37.64C712.971 37.64 711.891 37.92 710.931 38.48C709.971 39.0133 709.211 39.7867 708.651 40.8C708.091 41.8133 707.811 42.9867 707.811 44.32C707.811 45.6533 708.091 46.8267 708.651 47.84C709.211 48.8533 709.971 49.64 710.931 50.2C711.891 50.7333 712.971 51 714.171 51ZM746.948 37.88H735.548V55H730.548V33.64H746.948V37.88ZM758.547 33.4C761.693 33.4 764.093 34.16 765.747 35.68C767.427 37.1733 768.267 39.44 768.267 42.48V55H763.547V52.4C762.933 53.3333 762.053 54.0533 760.907 54.56C759.787 55.04 758.427 55.28 756.827 55.28C755.227 55.28 753.827 55.0133 752.627 54.48C751.427 53.92 750.493 53.16 749.827 52.2C749.187 51.2133 748.867 50.1067 748.867 48.88C748.867 46.96 749.573 45.4267 750.987 44.28C752.427 43.1067 754.68 42.52 757.747 42.52H763.267V42.2C763.267 40.7067 762.813 39.56 761.907 38.76C761.027 37.96 759.707 37.56 757.947 37.56C756.747 37.56 755.56 37.7467 754.387 38.12C753.24 38.4933 752.267 39.0133 751.467 39.68L749.507 36.04C750.627 35.1867 751.973 34.5333 753.547 34.08C755.12 33.6267 756.787 33.4 758.547 33.4ZM757.867 51.64C759.12 51.64 760.227 51.36 761.187 50.8C762.173 50.2133 762.867 49.3867 763.267 48.32V45.84H758.107C755.227 45.84 753.787 46.7867 753.787 48.68C753.787 49.5867 754.147 50.3067 754.867 50.84C755.587 51.3733 756.587 51.64 757.867 51.64ZM774.454 33.64H779.454V42.32H790.214V33.64H795.214V55H790.214V46.56H779.454V55H774.454V33.64ZM801.915 33.64H806.915V47.72L818.715 33.64H823.275V55H818.275V40.92L806.515 55H801.915V33.64ZM842.487 43.88C843.821 44.2533 844.847 44.8667 845.567 45.72C846.314 46.5467 846.687 47.5467 846.687 48.72C846.687 50.0267 846.247 51.1867 845.367 52.2C844.487 53.1867 843.274 53.96 841.727 54.52C840.181 55.08 838.421 55.36 836.447 55.36C834.794 55.36 833.181 55.1733 831.607 54.8C830.034 54.4 828.607 53.84 827.327 53.12L828.767 49.4C829.807 49.9867 830.981 50.44 832.287 50.76C833.594 51.08 834.901 51.24 836.207 51.24C837.887 51.24 839.194 50.9867 840.127 50.48C841.087 49.9467 841.567 49.2267 841.567 48.32C841.567 47.4933 841.194 46.8533 840.447 46.4C839.727 45.9467 838.701 45.72 837.367 45.72H833.207V42.36H836.967C838.221 42.36 839.194 42.1467 839.887 41.72C840.607 41.2933 840.967 40.6933 840.967 39.92C840.967 39.1467 840.541 38.5333 839.687 38.08C838.834 37.6267 837.661 37.4 836.167 37.4C834.034 37.4 831.781 37.92 829.407 38.96L828.127 35.28C830.927 33.9733 833.754 33.32 836.607 33.32C838.421 33.32 840.047 33.5733 841.487 34.08C842.927 34.56 844.047 35.2533 844.847 36.16C845.674 37.04 846.087 38.0533 846.087 39.2C846.087 40.24 845.767 41.1733 845.127 42C844.487 42.8 843.607 43.4267 842.487 43.88ZM859.836 33.4C862.982 33.4 865.382 34.16 867.036 35.68C868.716 37.1733 869.556 39.44 869.556 42.48V55H864.836V52.4C864.222 53.3333 863.342 54.0533 862.196 54.56C861.076 55.04 859.716 55.28 858.116 55.28C856.516 55.28 855.116 55.0133 853.916 54.48C852.716 53.92 851.782 53.16 851.116 52.2C850.476 51.2133 850.156 50.1067 850.156 48.88C850.156 46.96 850.862 45.4267 852.276 44.28C853.716 43.1067 855.969 42.52 859.036 42.52H864.556V42.2C864.556 40.7067 864.102 39.56 863.196 38.76C862.316 37.96 860.996 37.56 859.236 37.56C858.036 37.56 856.849 37.7467 855.676 38.12C854.529 38.4933 853.556 39.0133 852.756 39.68L850.796 36.04C851.916 35.1867 853.262 34.5333 854.836 34.08C856.409 33.6267 858.076 33.4 859.836 33.4ZM859.156 51.64C860.409 51.64 861.516 51.36 862.476 50.8C863.462 50.2133 864.156 49.3867 864.556 48.32V45.84H859.396C856.516 45.84 855.076 46.7867 855.076 48.68C855.076 49.5867 855.436 50.3067 856.156 50.84C856.876 51.3733 857.876 51.64 859.156 51.64ZM892.663 37.88H885.183V55H880.183V37.88H872.663V33.64H892.663V37.88ZM904.872 55.28C902.712 55.28 900.766 54.8133 899.032 53.88C897.299 52.9467 895.939 51.6533 894.952 50C893.992 48.32 893.512 46.4267 893.512 44.32C893.512 42.2133 893.992 40.3333 894.952 38.68C895.939 37.0267 897.299 35.7333 899.032 34.8C900.766 33.8667 902.712 33.4 904.872 33.4C907.059 33.4 909.019 33.8667 910.752 34.8C912.486 35.7333 913.832 37.0267 914.792 38.68C915.779 40.3333 916.272 42.2133 916.272 44.32C916.272 46.4267 915.779 48.32 914.792 50C913.832 51.6533 912.486 52.9467 910.752 53.88C909.019 54.8133 907.059 55.28 904.872 55.28ZM904.872 51C906.712 51 908.232 50.3867 909.432 49.16C910.632 47.9333 911.232 46.32 911.232 44.32C911.232 42.32 910.632 40.7067 909.432 39.48C908.232 38.2533 906.712 37.64 904.872 37.64C903.032 37.64 901.512 38.2533 900.312 39.48C899.139 40.7067 898.552 42.32 898.552 44.32C898.552 46.32 899.139 47.9333 900.312 49.16C901.512 50.3867 903.032 51 904.872 51ZM933.052 33.4C935.132 33.4 936.985 33.8533 938.612 34.76C940.265 35.6667 941.558 36.9467 942.492 38.6C943.425 40.2533 943.892 42.16 943.892 44.32C943.892 46.48 943.425 48.4 942.492 50.08C941.558 51.7333 940.265 53.0133 938.612 53.92C936.985 54.8267 935.132 55.28 933.052 55.28C930.172 55.28 927.892 54.32 926.212 52.4V62.76H921.212V33.64H925.972V36.44C926.798 35.4267 927.812 34.6667 929.012 34.16C930.238 33.6533 931.585 33.4 933.052 33.4ZM932.492 51C934.332 51 935.838 50.3867 937.012 49.16C938.212 47.9333 938.812 46.32 938.812 44.32C938.812 42.32 938.212 40.7067 937.012 39.48C935.838 38.2533 934.332 37.64 932.492 37.64C931.292 37.64 930.212 37.92 929.252 38.48C928.292 39.0133 927.532 39.7867 926.972 40.8C926.412 41.8133 926.132 42.9867 926.132 44.32C926.132 45.6533 926.412 46.8267 926.972 47.84C927.532 48.8533 928.292 49.64 929.252 50.2C930.212 50.7333 931.292 51 932.492 51ZM958.388 55.28C956.228 55.28 954.281 54.8133 952.548 53.88C950.814 52.9467 949.454 51.6533 948.468 50C947.508 48.32 947.028 46.4267 947.028 44.32C947.028 42.2133 947.508 40.3333 948.468 38.68C949.454 37.0267 950.814 35.7333 952.548 34.8C954.281 33.8667 956.228 33.4 958.388 33.4C960.574 33.4 962.534 33.8667 964.268 34.8C966.001 35.7333 967.348 37.0267 968.308 38.68C969.294 40.3333 969.788 42.2133 969.788 44.32C969.788 46.4267 969.294 48.32 968.308 50C967.348 51.6533 966.001 52.9467 964.268 53.88C962.534 54.8133 960.574 55.28 958.388 55.28ZM958.388 51C960.228 51 961.748 50.3867 962.948 49.16C964.148 47.9333 964.748 46.32 964.748 44.32C964.748 42.32 964.148 40.7067 962.948 39.48C961.748 38.2533 960.228 37.64 958.388 37.64C956.548 37.64 955.028 38.2533 953.828 39.48C952.654 40.7067 952.068 42.32 952.068 44.32C952.068 46.32 952.654 47.9333 953.828 49.16C955.028 50.3867 956.548 51 958.388 51ZM990.207 43.88C992.847 44.68 994.167 46.3867 994.167 49C994.167 50.92 993.447 52.4 992.007 53.44C990.567 54.48 988.434 55 985.607 55H974.727V33.64H985.167C987.781 33.64 989.821 34.12 991.287 35.08C992.754 36.04 993.487 37.4 993.487 39.16C993.487 40.2533 993.194 41.2 992.607 42C992.047 42.8 991.247 43.4267 990.207 43.88ZM979.487 42.56H984.727C987.314 42.56 988.607 41.6667 988.607 39.88C988.607 38.1467 987.314 37.28 984.727 37.28H979.487V42.56ZM985.207 51.36C987.954 51.36 989.327 50.4667 989.327 48.68C989.327 47.7467 989.007 47.0533 988.367 46.6C987.727 46.12 986.727 45.88 985.367 45.88H979.487V51.36H985.207ZM216.16 104.76V113.76H211.48V109H195V113.76H190.36V104.76H191.36C192.72 104.707 193.64 103.84 194.12 102.16C194.627 100.453 194.96 98.0533 195.12 94.96L195.4 87.64H213V104.76H216.16ZM199.68 95.32C199.573 97.7733 199.373 99.7733 199.08 101.32C198.787 102.867 198.253 104.013 197.48 104.76H208V91.88H199.8L199.68 95.32ZM230.146 109.28C227.986 109.28 226.039 108.813 224.306 107.88C222.572 106.947 221.212 105.653 220.226 104C219.266 102.32 218.786 100.427 218.786 98.32C218.786 96.2133 219.266 94.3333 220.226 92.68C221.212 91.0267 222.572 89.7333 224.306 88.8C226.039 87.8667 227.986 87.4 230.146 87.4C232.332 87.4 234.292 87.8667 236.026 88.8C237.759 89.7333 239.106 91.0267 240.066 92.68C241.052 94.3333 241.546 96.2133 241.546 98.32C241.546 100.427 241.052 102.32 240.066 104C239.106 105.653 237.759 106.947 236.026 107.88C234.292 108.813 232.332 109.28 230.146 109.28ZM230.146 105C231.986 105 233.506 104.387 234.706 103.16C235.906 101.933 236.506 100.32 236.506 98.32C236.506 96.32 235.906 94.7067 234.706 93.48C233.506 92.2533 231.986 91.64 230.146 91.64C228.306 91.64 226.786 92.2533 225.586 93.48C224.412 94.7067 223.826 96.32 223.826 98.32C223.826 100.32 224.412 101.933 225.586 103.16C226.786 104.387 228.306 105 230.146 105ZM246.485 87.64H251.485V96.32H262.245V87.64H267.245V109H262.245V100.56H251.485V109H246.485V87.64ZM283.466 109.28C281.306 109.28 279.359 108.813 277.626 107.88C275.893 106.947 274.533 105.653 273.546 104C272.586 102.32 272.106 100.427 272.106 98.32C272.106 96.2133 272.586 94.3333 273.546 92.68C274.533 91.0267 275.893 89.7333 277.626 88.8C279.359 87.8667 281.306 87.4 283.466 87.4C285.653 87.4 287.613 87.8667 289.346 88.8C291.079 89.7333 292.426 91.0267 293.386 92.68C294.373 94.3333 294.866 96.2133 294.866 98.32C294.866 100.427 294.373 102.32 293.386 104C292.426 105.653 291.079 106.947 289.346 107.88C287.613 108.813 285.653 109.28 283.466 109.28ZM283.466 105C285.306 105 286.826 104.387 288.026 103.16C289.226 101.933 289.826 100.32 289.826 98.32C289.826 96.32 289.226 94.7067 288.026 93.48C286.826 92.2533 285.306 91.64 283.466 91.64C281.626 91.64 280.106 92.2533 278.906 93.48C277.733 94.7067 277.146 96.32 277.146 98.32C277.146 100.32 277.733 101.933 278.906 103.16C280.106 104.387 281.626 105 283.466 105ZM311.645 87.4C313.725 87.4 315.579 87.8533 317.205 88.76C318.859 89.6667 320.152 90.9467 321.085 92.6C322.019 94.2533 322.485 96.16 322.485 98.32C322.485 100.48 322.019 102.4 321.085 104.08C320.152 105.733 318.859 107.013 317.205 107.92C315.579 108.827 313.725 109.28 311.645 109.28C308.765 109.28 306.485 108.32 304.805 106.4V116.76H299.805V87.64H304.565V90.44C305.392 89.4267 306.405 88.6667 307.605 88.16C308.832 87.6533 310.179 87.4 311.645 87.4ZM311.085 105C312.925 105 314.432 104.387 315.605 103.16C316.805 101.933 317.405 100.32 317.405 98.32C317.405 96.32 316.805 94.7067 315.605 93.48C314.432 92.2533 312.925 91.64 311.085 91.64C309.885 91.64 308.805 91.92 307.845 92.48C306.885 93.0133 306.125 93.7867 305.565 94.8C305.005 95.8133 304.725 96.9867 304.725 98.32C304.725 99.6533 305.005 100.827 305.565 101.84C306.125 102.853 306.885 103.64 307.845 104.2C308.805 104.733 309.885 105 311.085 105ZM337.182 109.28C334.968 109.28 332.982 108.813 331.222 107.88C329.462 106.947 328.088 105.653 327.102 104C326.115 102.32 325.622 100.427 325.622 98.32C325.622 96.2133 326.115 94.3333 327.102 92.68C328.088 91.0267 329.448 89.7333 331.182 88.8C332.942 87.8667 334.942 87.4 337.182 87.4C339.288 87.4 341.128 87.8267 342.702 88.68C344.302 89.5333 345.502 90.76 346.302 92.36L342.462 94.6C341.848 93.6133 341.075 92.88 340.142 92.4C339.235 91.8933 338.235 91.64 337.142 91.64C335.275 91.64 333.728 92.2533 332.502 93.48C331.275 94.68 330.662 96.2933 330.662 98.32C330.662 100.347 331.262 101.973 332.462 103.2C333.688 104.4 335.248 105 337.142 105C338.235 105 339.235 104.76 340.142 104.28C341.075 103.773 341.848 103.027 342.462 102.04L346.302 104.28C345.475 105.88 344.262 107.12 342.662 108C341.088 108.853 339.262 109.28 337.182 109.28ZM359.584 100.44H355.704V109H350.704V87.64H355.704V96.28H359.704L366.024 87.64H371.384L363.624 97.92L371.904 109H366.024L359.584 100.44ZM375.43 87.64H380.43V101.72L392.23 87.64H396.79V109H391.79V94.92L380.03 109H375.43V87.64ZM416.876 109L411.396 101.6L405.876 109H400.356L408.676 98.16L400.716 87.64H406.276L411.516 94.64L416.756 87.64H422.156L414.156 98.08L422.516 109H416.876ZM458.149 109V94.84L450.949 106.76H448.789L441.709 94.8V109H437.149V87.64H442.389L449.989 101L457.949 87.64H462.629L462.669 109H458.149ZM489.376 98.44C489.376 98.7867 489.349 99.28 489.296 99.92H472.536C472.829 101.493 473.589 102.747 474.816 103.68C476.069 104.587 477.616 105.04 479.456 105.04C481.802 105.04 483.736 104.267 485.256 102.72L487.936 105.8C486.976 106.947 485.762 107.813 484.296 108.4C482.829 108.987 481.176 109.28 479.336 109.28C476.989 109.28 474.922 108.813 473.136 107.88C471.349 106.947 469.962 105.653 468.976 104C468.016 102.32 467.536 100.427 467.536 98.32C467.536 96.24 468.002 94.3733 468.936 92.72C469.896 91.04 471.216 89.7333 472.896 88.8C474.576 87.8667 476.469 87.4 478.576 87.4C480.656 87.4 482.509 87.8667 484.136 88.8C485.789 89.7067 487.069 91 487.976 92.68C488.909 94.3333 489.376 96.2533 489.376 98.44ZM478.576 91.4C476.976 91.4 475.616 91.88 474.496 92.84C473.402 93.7733 472.736 95.0267 472.496 96.6H484.616C484.402 95.0533 483.749 93.8 482.656 92.84C481.562 91.88 480.202 91.4 478.576 91.4ZM506.684 87.4C508.764 87.4 510.618 87.8533 512.244 88.76C513.898 89.6667 515.191 90.9467 516.124 92.6C517.058 94.2533 517.524 96.16 517.524 98.32C517.524 100.48 517.058 102.4 516.124 104.08C515.191 105.733 513.898 107.013 512.244 107.92C510.618 108.827 508.764 109.28 506.684 109.28C503.804 109.28 501.524 108.32 499.844 106.4V116.76H494.844V87.64H499.604V90.44C500.431 89.4267 501.444 88.6667 502.644 88.16C503.871 87.6533 505.218 87.4 506.684 87.4ZM506.124 105C507.964 105 509.471 104.387 510.644 103.16C511.844 101.933 512.444 100.32 512.444 98.32C512.444 96.32 511.844 94.7067 510.644 93.48C509.471 92.2533 507.964 91.64 506.124 91.64C504.924 91.64 503.844 91.92 502.884 92.48C501.924 93.0133 501.164 93.7867 500.604 94.8C500.044 95.8133 499.764 96.9867 499.764 98.32C499.764 99.6533 500.044 100.827 500.604 101.84C501.164 102.853 501.924 103.64 502.884 104.2C503.844 104.733 504.924 105 506.124 105ZM532.021 109.28C529.861 109.28 527.914 108.813 526.181 107.88C524.447 106.947 523.087 105.653 522.101 104C521.141 102.32 520.661 100.427 520.661 98.32C520.661 96.2133 521.141 94.3333 522.101 92.68C523.087 91.0267 524.447 89.7333 526.181 88.8C527.914 87.8667 529.861 87.4 532.021 87.4C534.207 87.4 536.167 87.8667 537.901 88.8C539.634 89.7333 540.981 91.0267 541.941 92.68C542.927 94.3333 543.421 96.2133 543.421 98.32C543.421 100.427 542.927 102.32 541.941 104C540.981 105.653 539.634 106.947 537.901 107.88C536.167 108.813 534.207 109.28 532.021 109.28ZM532.021 105C533.861 105 535.381 104.387 536.581 103.16C537.781 101.933 538.381 100.32 538.381 98.32C538.381 96.32 537.781 94.7067 536.581 93.48C535.381 92.2533 533.861 91.64 532.021 91.64C530.181 91.64 528.661 92.2533 527.461 93.48C526.287 94.7067 525.701 96.32 525.701 98.32C525.701 100.32 526.287 101.933 527.461 103.16C528.661 104.387 530.181 105 532.021 105ZM568.84 87.64V109H563.88V91.88H553.36V109H548.36V87.64H568.84ZM587.427 87.4C589.507 87.4 591.36 87.8533 592.987 88.76C594.64 89.6667 595.933 90.9467 596.867 92.6C597.8 94.2533 598.267 96.16 598.267 98.32C598.267 100.48 597.8 102.4 596.867 104.08C595.933 105.733 594.64 107.013 592.987 107.92C591.36 108.827 589.507 109.28 587.427 109.28C584.547 109.28 582.267 108.32 580.587 106.4V116.76H575.587V87.64H580.347V90.44C581.173 89.4267 582.187 88.6667 583.387 88.16C584.613 87.6533 585.96 87.4 587.427 87.4ZM586.867 105C588.707 105 590.213 104.387 591.387 103.16C592.587 101.933 593.187 100.32 593.187 98.32C593.187 96.32 592.587 94.7067 591.387 93.48C590.213 92.2533 588.707 91.64 586.867 91.64C585.667 91.64 584.587 91.92 583.627 92.48C582.667 93.0133 581.907 93.7867 581.347 94.8C580.787 95.8133 580.507 96.9867 580.507 98.32C580.507 99.6533 580.787 100.827 581.347 101.84C581.907 102.853 582.667 103.64 583.627 104.2C584.587 104.733 585.667 105 586.867 105ZM603.243 87.64H608.243V101.72L620.043 87.64H624.603V109H619.603V94.92L607.843 109H603.243V87.64ZM649.369 87.64V109H644.889V102.56H639.249L634.889 109H629.529L634.569 101.88C633.022 101.347 631.835 100.533 631.009 99.44C630.209 98.32 629.809 96.9467 629.809 95.32C629.809 92.8667 630.675 90.9733 632.409 89.64C634.142 88.3067 636.529 87.64 639.569 87.64H649.369ZM639.729 91.84C636.502 91.84 634.889 93.0533 634.889 95.48C634.889 97.88 636.449 99.08 639.569 99.08H644.889V91.84H639.729ZM673.014 91.88H665.534V109H660.534V91.88H653.014V87.64H673.014V91.88ZM676.641 87.64H681.641V101.72L693.441 87.64H698.001V109H693.001V94.92L681.241 109H676.641V87.64ZM704.727 87.64H709.727V101.72L721.527 87.64H726.087V109H721.087V94.92L709.327 109H704.727V87.64ZM715.087 85.12C712.927 85.12 711.274 84.6267 710.127 83.64C709.007 82.6267 708.434 81.16 708.407 79.24H711.727C711.754 80.2 712.047 80.96 712.607 81.52C713.194 82.08 714.007 82.36 715.047 82.36C716.061 82.36 716.861 82.08 717.447 81.52C718.061 80.96 718.381 80.2 718.407 79.24H721.807C721.781 81.16 721.194 82.6267 720.047 83.64C718.901 84.6267 717.247 85.12 715.087 85.12Z" fill="#131416"/>
<defs>
<clipPath id="clip0_204_169">
<rect width="135" height="135" fill="white"/>
</clipPath>
</defs>
</svg>
